<svg id="Layer_1" data-name="Layer 1" xmlns="http://www.w3.org/2000/svg" viewBox="0 0 411.02 411.02"><defs><style>.cls-1{fill:#b01c63;}</style></defs><path class="cls-1" d="M36.66,343.34l-.09-2.52a1.13,1.13,0,0,1-.07-.15.8.8,0,0,1,0-.16.4.4,0,0,1,.05-.15.4.4,0,0,0,0-.15v-.4a.63.63,0,0,1,0-.16v-.59a.17.17,0,0,1-.14-.13.52.52,0,0,1,0-.25.79.79,0,0,1,0-.22c0-.06.07-.1.12-.1s0-.13,0-.27l0-.41c0-.14,0-.28,0-.4a1.31,1.31,0,0,1,0-.28v-1.54c0-.57,0-1.14-.06-1.7a16,16,0,0,1,0-1.7,1.65,1.65,0,0,1-.11-.21l-.12-.22v0a0,0,0,0,1,0,0,.08.08,0,0,0,0,0,.28.28,0,0,1,0-.14.31.31,0,0,1,.11-.15s0-.14,0-.27,0-.26,0-.41,0-.27,0-.4,0-.22,0-.28c0-.86,0-1.71,0-2.56s-.1-1.7-.16-2.56c0-.07,0-.25,0-.54s0-.59,0-.91,0-.63-.06-.92,0-.46,0-.53,0-.06,0-.14,0-.16-.05-.26,0-.19-.08-.29a1.09,1.09,0,0,0-.07-.25,2.61,2.61,0,0,0-.17-.52,1,1,0,0,0-.33-.41,4.7,4.7,0,0,0-1-.13c-.3,0-.62,0-1-.05H32.38l-.24,0-.26,0-.2,0-.2,0q-.18,0-.21.06h0a1.56,1.56,0,0,1-.49-.1.53.53,0,0,1-.27-.35,9.24,9.24,0,0,1-.21-1.92c0-.62,0-1.26,0-1.91,0-.09,0-.22,0-.42s0-.38,0-.59a5.78,5.78,0,0,0,0-.58c0-.18,0-.32,0-.4a.42.42,0,0,1,.33-.24,1.55,1.55,0,0,1,.41,0h3.18c.42,0,.83,0,1.24-.07a10.31,10.31,0,0,1,1.25,0h.53l.83,0,.95,0h2.33a19.86,19.86,0,0,1,2.3-.1l2.33.05.26,0,.34-.06h.72a.56.56,0,0,1,.35.12.47.47,0,0,1,.16.25,1.16,1.16,0,0,1,.05.34,2.22,2.22,0,0,0,0,.37c0,.12,0,.33.05.62s0,.62,0,.94,0,.64.05.94,0,.49,0,.6,0,.13,0,.27,0,.26,0,.32A3.85,3.85,0,0,1,48,319a.67.67,0,0,1-.35.45,1.52,1.52,0,0,1-.65.09h-1l-.3,0-.51,0-.55.05-.41,0-.24,0-.37.06-.37.07-.24,0a1.89,1.89,0,0,0-.1.47c0,.13,0,.28,0,.44s0,.27,0,.37a2.3,2.3,0,0,0,.1.44l0,3.71a1.92,1.92,0,0,1,.08.81,3.26,3.26,0,0,0,0,.83,1.06,1.06,0,0,1,0,.18l0,.27c0,.1,0,.19,0,.29s0,.17,0,.22c.06.43.1.85.13,1.26s.06.82.07,1.22,0,.82.08,1.24.07.85.13,1.29l.09,2.06c0,.38,0,.72,0,1a8.32,8.32,0,0,0,.1,1,.35.35,0,0,0,0,.12.24.24,0,0,1,0,.12v.1l0,.07a.36.36,0,0,0,0,.11l0,2.73,0,.07a.34.34,0,0,1,0,.1,1.65,1.65,0,0,1,0,.17c0,.1,0,.15,0,.17-.06.38-.1.8-.14,1.28a11.08,11.08,0,0,0,0,1.27l-.21.2-6.36.14Z"/><path class="cls-1" d="M51,343.9h-.21c-.08,0-.11,0-.11-.15v0c-.11.09-.21.06-.31-.1a2.63,2.63,0,0,1-.11-1.12v-.25c0-.75,0-1.49,0-2.22s.08-1.43.12-2.11.08-1.32.12-1.94,0-1.21,0-1.77a.42.42,0,0,0-.11-.32.38.38,0,0,1-.1-.27v-.11a.37.37,0,0,1,.08-.17,1.31,1.31,0,0,1,.13-.17.87.87,0,0,0,0-.13c0-.07,0-.16-.08-.26a2.46,2.46,0,0,0-.07-.29,1.29,1.29,0,0,1,0-.24q0-.12,0-.39c0-.18,0-.36,0-.55s0-.35,0-.51,0-.25,0-.3a2.6,2.6,0,0,0,0-.53q0-.41,0-.87t0-.87c0-.27,0-.44,0-.53,0-1.05.05-2.08.07-3.08s0-2,0-3a1.09,1.09,0,0,1,0-.19.28.28,0,0,1,.1-.17v-2.28a8.68,8.68,0,0,1,0-1c0-.3,0-.6,0-.89s0-.59,0-.9,0-.65,0-1c0-.06,0-.19,0-.38s0-.33,0-.39a1.22,1.22,0,0,0,0-.28,1.86,1.86,0,0,1,0-.41,2.13,2.13,0,0,1,0-.39c0-.11.08-.17.16-.17l1.2-.29h.14l.23,0,.23,0,.14,0H55.7l.34,0,.35,0,.25,0a.66.66,0,0,1,.35.15.56.56,0,0,1,.25.34,8.28,8.28,0,0,1,.23,1.32,10.81,10.81,0,0,0,.17,1.2q0,.16,0,.66c0,.34,0,.73,0,1.18s0,.92.05,1.41,0,1,.06,1.42,0,.84,0,1.17a5.93,5.93,0,0,0,0,.67v.21a2.56,2.56,0,0,0,.66-.35,6.44,6.44,0,0,1,.61-.42.34.34,0,0,0,.12-.05l.2-.09.2-.1.11-.06a5.21,5.21,0,0,1,2-.7,15.9,15.9,0,0,1,2.19-.15h1l.16,0,.31.09.35.11.27.07.22.08.39.15.43.16.33.12a3.49,3.49,0,0,1,.72.41,6.88,6.88,0,0,1,.67.54c.22.2.42.41.61.62s.38.41.56.59a.94.94,0,0,1,.1.27,1.18,1.18,0,0,0,.11.27l.15.32c.07.13.13.26.2.4s.12.24.17.35l.09.17a.54.54,0,0,0,0,.15,2.82,2.82,0,0,0,.09.27l.09.28.07.21a6.28,6.28,0,0,1,.06.7c0,.37,0,.78,0,1.23s0,.91,0,1.37,0,.84,0,1.12l-.07,1.78.13,1.34,0,.3a15.48,15.48,0,0,0,.06,1.83c.07.74.1,1.55.1,2.44v1.07c0,.15,0,.39,0,.74s0,.71,0,1.09,0,.75,0,1.09,0,.59,0,.74a1.26,1.26,0,0,1-.41.45,1.24,1.24,0,0,1-.57.28l-.85,0c-.5,0-1.32,0-2.47-.07,0,0-.07.05-.15.08a.24.24,0,0,1-.17,0h-.14l-.25,0-.24,0-.12,0-.25,0h-.35l-.36,0h-.26l-.19,0a.27.27,0,0,0-.19,0h-.1l-.12-.11-.12-.1v-.11s0-.06,0-.15a2.17,2.17,0,0,0,0-.25l0-.26a1,1,0,0,0,0-.15c0-.08,0-.29,0-.63s0-.69,0-1.07,0-.74,0-1.07a3.72,3.72,0,0,1,0-.63c0-.06,0-.21,0-.44s0-.48.07-.74,0-.51.06-.75,0-.38,0-.44,0-.17,0-.41,0-.52,0-.83,0-.63.05-.95,0-.56,0-.74,0-.32,0-.61,0-.57,0-.89,0-.61,0-.89,0-.47,0-.59,0-.11,0-.21,0-.22-.07-.33l-.06-.34a1.26,1.26,0,0,1,0-.21v-.11a3.31,3.31,0,0,1-.1-.32l-.16-.5a4.92,4.92,0,0,0-.16-.5l-.1-.33a1.47,1.47,0,0,0-.13-.3.86.86,0,0,0-.14-.18,1.33,1.33,0,0,0-.19-.14,2.94,2.94,0,0,1-.27-.22,4.67,4.67,0,0,0-.39-.3,1.1,1.1,0,0,0-.3-.16,1.21,1.21,0,0,0-.34-.07h-1a2,2,0,0,0-.51.1,2.77,2.77,0,0,0-.9.53,5.35,5.35,0,0,0-.74.83,5.45,5.45,0,0,0-.56,1,5.93,5.93,0,0,0-.36,1s-.05.09-.08.22a1.38,1.38,0,0,0,0,.28.61.61,0,0,0,0,.15,1.87,1.87,0,0,0,0,.25l0,.26a1.13,1.13,0,0,1,0,.14,4.62,4.62,0,0,1-.1.46q-.07.35-.18.75t-.21.75c-.06.24-.11.38-.13.44a.88.88,0,0,0-.06.31,1.3,1.3,0,0,1-.05.3c0,.2-.06.5-.1.88s-.09.77-.14,1.16-.1.75-.14,1.07-.05.51-.05.58v1.11c0,.11,0,.29,0,.54s0,.51,0,.78,0,.51,0,.73a1.42,1.42,0,0,1,0,.41c0,.23,0,.51,0,.81s0,.57,0,.8v.09a.28.28,0,0,1,0,.15.55.55,0,0,1-.15.16.6.6,0,0,1-.29.12Z"/><path class="cls-1" d="M73.49,331.27c.07-.44.16-.87.27-1.3s.23-.85.36-1.28l.24-.82.24-.81a1.32,1.32,0,0,1,.05-.2c0-.11.06-.22.1-.35a3.54,3.54,0,0,0,.12-.34l.07-.19a3.73,3.73,0,0,1,.58-1.12c.25-.34.51-.67.78-1a.52.52,0,0,0,.12-.13l.23-.25.23-.26A1.07,1.07,0,0,1,77,323a.45.45,0,0,0,.07-.09c0-.05.07-.11.12-.17l.11-.17a.36.36,0,0,1,.09-.09,11.2,11.2,0,0,1,1.66-1.17,14.06,14.06,0,0,1,1.88-.89,12.58,12.58,0,0,1,2-.58,10.58,10.58,0,0,1,2-.23,12.83,12.83,0,0,1,2.31,0,7.26,7.26,0,0,1,2.24.59,8.31,8.31,0,0,1,1.51.61,10.24,10.24,0,0,1,1.07.66c.3.22.54.41.73.58a2.17,2.17,0,0,0,.5.37,13.25,13.25,0,0,1,1,.95,9.35,9.35,0,0,1,.82,1,12.31,12.31,0,0,1,.69,1.07q.32.56.63,1.26c0,.1.08.3.15.58s.13.57.2.88.14.61.2.89.1.48.11.59a.62.62,0,0,1,0,.16v1.22c0,.13,0,.25,0,.38v.33a.35.35,0,0,1,0,.16,1.39,1.39,0,0,1-.05.23,3.58,3.58,0,0,0-.11.35c0,.13-.07.25-.1.36a1.33,1.33,0,0,0,0,.21,2.05,2.05,0,0,1-.72.49,3,3,0,0,1-.86.17l-1.18.05a16.51,16.51,0,0,0-1.68.11h-2a.28.28,0,0,1-.15.05,1,1,0,0,1-.24,0,.79.79,0,0,1-.23,0c-.06,0-.1-.06-.11-.11h-.82l-.22,0-.06,0h-.09l-1,0-1.14,0-1.14,0h-1A11.18,11.18,0,0,1,83,334l-1,0-1,0a11,11,0,0,0-1.15,0h-.18a.14.14,0,0,0-.13.09,1.31,1.31,0,0,0,0,.27,1.12,1.12,0,0,1,0,.24c.11.43.18.73.23.92a3,3,0,0,0,.11.39.6.6,0,0,0,.14.2,2.87,2.87,0,0,1,.26.33.21.21,0,0,0,.06.08l.14.14a.89.89,0,0,1,.14.13s.07.07.07.08a3.39,3.39,0,0,0,1.56,1.37,4.55,4.55,0,0,0,2,.39h.69a2.6,2.6,0,0,1,.51,0,1.7,1.7,0,0,1,.27,0l.23,0,.37,0c.18,0,.42-.07.72-.14l1.26-.29.2-.09.39-.2.39-.21.22-.11c.31-.19.59-.38.85-.57l.68-.51.6-.41a2.78,2.78,0,0,1,.54-.28h.11s.06,0,.11,0,.07.06.07.08a5.61,5.61,0,0,0,.48.37l.66.46.63.45a3.3,3.3,0,0,1,.45.39l.25.18.41.31.38.32.16.17v.08a.07.07,0,0,0,0,.05.43.43,0,0,1,0,.05,1.18,1.18,0,0,1-.26.79c-.19.23-.38.45-.58.66-.57.61-1.16,1.21-1.79,1.79a9,9,0,0,1-2,1.44,4.24,4.24,0,0,1-.71.24,4.89,4.89,0,0,0-.72.21,6.38,6.38,0,0,1-.9.2,8,8,0,0,1-.84.08c-.27,0-.56,0-.85,0h-.94a19.41,19.41,0,0,1-2.45-.09,13.42,13.42,0,0,1-2.4-.48,7.76,7.76,0,0,1-.86-.32,5.81,5.81,0,0,1-.75-.37,7,7,0,0,1-.69-.47c-.22-.17-.46-.36-.69-.56-.42-.36-.85-.71-1.28-1A8.44,8.44,0,0,1,76,339.53a1.13,1.13,0,0,1-.15-.22,2.08,2.08,0,0,1-.13-.25,1.79,1.79,0,0,1-.15-.17l-.22-.29-.23-.28-.14-.17-.15-.28c-.08-.15-.16-.32-.27-.52l-.28-.58c-.09-.19-.16-.35-.21-.47a.35.35,0,0,1-.07-.14.41.41,0,0,1,0-.15q-.21-1.17-.36-2.31a14.87,14.87,0,0,1-.14-2.34Zm12.76-5.73a7.14,7.14,0,0,0-1.71.22,5.22,5.22,0,0,0-1.54.72c-.16.11-.35.25-.56.42s-.41.35-.61.54a3.15,3.15,0,0,0-.49.63,1.29,1.29,0,0,0-.2.65,7,7,0,0,0,.86-.1,5.41,5.41,0,0,1,.84-.09h.07l.23,0h.41l.42,0h2l.45,0,.58,0,.53,0h.92l1,0,1,0,.65,0a.11.11,0,0,0,.07,0l0,0a.21.21,0,0,0,0-.11.52.52,0,0,0-.07-.11L91,328l-.13-.24-.13-.19a.37.37,0,0,0-.07-.1,4.63,4.63,0,0,0-2-1.45A6,6,0,0,0,86.25,325.54Z"/><path class="cls-1" d="M107.34,343.06a1,1,0,0,1,0-.17.5.5,0,0,0,0-.16.55.55,0,0,1,0-.18.86.86,0,0,1,0-.15v-.11c0-.82,0-1.66-.1-2.53s-.11-1.72-.11-2.53c0-.46,0-.93,0-1.4s.06-.94.06-1.39a.4.4,0,0,0,0-.29c0-.13,0-.27-.08-.42a3.32,3.32,0,0,1-.06-.44.36.36,0,0,1,.14-.32c0-.48,0-1,0-1.43a8.88,8.88,0,0,0-.18-1.43c0-1.27-.1-2.6-.19-4s-.12-2.88-.1-4.43c0-.07,0-.25,0-.53v-.92c0-.32,0-.63,0-.91v-1a6.37,6.37,0,0,0,0-1.32c0-.46,0-.91-.06-1.34a5.31,5.31,0,0,1,.09-1.22,1.74,1.74,0,0,1,.53-.94,6.24,6.24,0,0,1,.81-.13,7.79,7.79,0,0,1,.79-.05h.14l.28,0,.29,0H110a.69.69,0,0,0,.24,0h1.15l.28,0,.61,0,.7,0,.56,0h.31s.08,0,.13.08.08.08.08.1v3.75l-.1.18v3.7l-.13,1.85v.13a1.64,1.64,0,0,0,.25-.32l.39-.55.38-.56.23-.33a3.1,3.1,0,0,0,.49-.71,4.83,4.83,0,0,1,.45-.72l1.21-1.64,1.11-1.53c.38-.51.76-1,1.15-1.5s.83-1,1.29-1.53l.4-.39a1,1,0,0,0,.28-.36c0-.09.13-.12.28-.1l.37,0H123a.46.46,0,0,0,.19,0l3.12-.11a.56.56,0,0,0,.23,0l.4,0,.4,0,.26,0h.13l.22,0,.21,0,.14,0a1.33,1.33,0,0,1,.35.2.2.2,0,0,1,.06.28c-.07.14-.13.26-.17.36l-.13.27-.16.29L128,315c-.45.45-.83.86-1.15,1.21l-.89,1-.8.91c-.25.3-.54.62-.86.95s-.5.65-.74,1a5.1,5.1,0,0,1-.8,1l-3.52,4.51-.19.26-.4.51-.38.53a1.38,1.38,0,0,0-.17.26,3.77,3.77,0,0,1,.62.64,8.63,8.63,0,0,1,.52.77c.17.27.35.53.53.8a4.33,4.33,0,0,0,.64.71l.2.23a1.16,1.16,0,0,1,.19.22l.13,0,.11,0,.1.11a.75.75,0,0,1,.36.17,1.77,1.77,0,0,1,.3.31c.09.12.17.25.26.38a2.42,2.42,0,0,0,.27.36,2.07,2.07,0,0,1,.32.49,3.12,3.12,0,0,0,.3.53.1.1,0,0,1,.11.11c.2,0,.33.08.38.18a.63.63,0,0,1,0,.44l0,.07a.35.35,0,0,0,.07.11,1.36,1.36,0,0,0,.12.18l.11.16a.54.54,0,0,0,.11.12l.19.17.19.18a.41.41,0,0,0,.14.1.25.25,0,0,0,0,.25c0,.06.06.13.09.2l.11.16a2.14,2.14,0,0,1,.13.19l.12.18.07.1.2.09a.5.5,0,0,0,.22.09,1,1,0,0,1,.12.27,2,2,0,0,0,.16.36c.19.24.36.43.49.59a7.29,7.29,0,0,0,.55.53l.5.64.75,1,.75,1c.23.3.39.51.49.62a7.67,7.67,0,0,1,.54.84,1.87,1.87,0,0,1,.27.94c0,.07,0,.16,0,.28a.25.25,0,0,1-.16.22h-.23a7.18,7.18,0,0,1-1.38.14c-.45,0-.92,0-1.4.05a.49.49,0,0,1-.19,0l-.33,0-.33,0h-1.7a.78.78,0,0,0-.37,0,.76.76,0,0,1-.49-.1,2.34,2.34,0,0,1-.49-.31,4.19,4.19,0,0,1-.54-.49,10,10,0,0,0-.67-.79q-.36-.37-.66-.75l-.14-.19a1.2,1.2,0,0,0-.18-.2l-.2-.24-1.34-1.64-.07-.14-.13-.2-.13-.18a.39.39,0,0,1-.08-.11.5.5,0,0,0-.29-.14c-.13,0-.21-.07-.23-.17s0-.09,0-.2a.5.5,0,0,0,0-.23,2.43,2.43,0,0,1-.2-.28,2,2,0,0,1-.17-.23c-.06-.07-.1-.14-.14-.19a.13.13,0,0,0,0-.07l-.07,0a.82.82,0,0,0-.17-.11c-.09-.05-.14-.08-.14-.11s0,0-.07-.13,0-.15,0-.17l-.14-.16-.22-.26-.23-.26-.14-.16a2.73,2.73,0,0,1-.57-.62c-.22-.29-.44-.62-.68-1l-.74-1.05a7,7,0,0,0-.73-.88,12,12,0,0,0,.07,1.3c0,.46.09.93.14,1.41s.08.95.1,1.4a9,9,0,0,1,0,1.29l-.15,5.93a.27.27,0,0,1-.1.19,1,1,0,0,1-.47.12l-1.22.1-2.29.14a1,1,0,0,0-.49-.07l-.81,0a3.29,3.29,0,0,1-.75-.11C107.45,343.35,107.34,343.23,107.34,343.06Z"/><path class="cls-1" d="M138.41,343.22c-.84-.33-1.57-.63-2.16-.92s-1.11-.55-1.53-.8a9.8,9.8,0,0,1-1-.67c-.25-.21-.47-.4-.64-.57a4.3,4.3,0,0,1-.43-.45,3.69,3.69,0,0,0-.35-.34s-.06,0-.12-.08-.08-.09-.08-.11a.52.52,0,0,1-.07-.11.21.21,0,0,1,0-.11l-.21-.21-.24-.25-.21-.19c-.06-.06-.09-.08-.11-.08l-.39-.63v0s0,0,0,0,0,0,0,0v0a5,5,0,0,1-.68-1.21,10.07,10.07,0,0,1-.46-1.34c-.13-.46-.24-.92-.35-1.39s-.23-.91-.36-1.34a2,2,0,0,1-.09-.57,2.32,2.32,0,0,0-.07-.56c-.07-.28-.15-.55-.23-.83a3.4,3.4,0,0,1-.16-.82c0-.11,0-.3,0-.59s0-.59-.06-.92,0-.64-.07-.93,0-.51,0-.64V326a7.24,7.24,0,0,1,.13-1.3c.07-.39.17-.8.3-1.26a1.14,1.14,0,0,0,.07-.21c0-.12.07-.26.11-.4s.07-.27.1-.39.05-.19.06-.22a7.2,7.2,0,0,1,.39-1.07,6.61,6.61,0,0,1,.41-.74,4.37,4.37,0,0,1,.44-.57,3.71,3.71,0,0,1,.46-.91,10.28,10.28,0,0,1,.75-.94c.29-.32.6-.63.94-.94s.66-.61,1-.88a4.74,4.74,0,0,1,1.47-1c.57-.27,1.11-.51,1.63-.71l.28-.14.49-.23.49-.22a1.87,1.87,0,0,0,.28-.15l.14,0,.27-.09.27-.1.16-.06a.69.69,0,0,1,.22-.11.72.72,0,0,0,.21-.11h.48l.13,0h.15l.27-.05.3,0,.21-.05a5.44,5.44,0,0,1,1.47-.21h3.4l.4,0,.41,0,.28.05.23,0,.3.07.2,0a.61.61,0,0,1,.21.07l.21,0,.39,0,.39,0,.24,0a.83.83,0,0,0,.21.07l.19,0,.19.12c.1.06.2.13.32.19l.32.2.19.12a.92.92,0,0,0,.2.11l.21.12a.38.38,0,0,1,.16.1.56.56,0,0,0,.16.1h.18a.4.4,0,0,1,.26.32,1.42,1.42,0,0,1,.08.45v.18a.34.34,0,0,1-.09.12.94.94,0,0,1-.14.16s-.08.1-.15.21-.17.23-.26.37l-.26.35-.15.2a1.18,1.18,0,0,0-.45.5c-.17.28-.35.56-.56.84a4,4,0,0,1-.65.74.74.74,0,0,1-.74.18c-.66-.17-1.29-.31-1.9-.42a13.06,13.06,0,0,0-1.92-.17h-.48a1.83,1.83,0,0,1-.33,0l-.16,0-.26.06-.26.07-.16,0-.29.05-.52.06-.52.06a1.93,1.93,0,0,0-.32.05l-.17,0-.33.11-.36.12-.26.1a6.31,6.31,0,0,0-1.48.86,9.11,9.11,0,0,0-1.23,1.18,2.6,2.6,0,0,0-.21.27l-.35.46-.36.46-.23.27-.35.4a1.53,1.53,0,0,0-.26.51c0,.06-.05.17-.09.34s-.09.34-.13.53-.09.36-.13.53a2.56,2.56,0,0,0-.09.35.24.24,0,0,0,0,.08v.12a1.74,1.74,0,0,0,.05.39,1.33,1.33,0,0,1,.06.42v0l-.16.2c-.09.11-.13.17-.13.2V327c0,.56,0,1.17.05,1.83a7.27,7.27,0,0,0,.33,1.81l.28,1,0,0s0,.13.09.24.08.23.13.35.09.23.13.34a.82.82,0,0,0,.08.21.69.69,0,0,1,.31.39,2.18,2.18,0,0,0,.21.47,15.19,15.19,0,0,0,1,1.27,8.94,8.94,0,0,0,1.13,1.09,7.62,7.62,0,0,0,1.32.85,6.3,6.3,0,0,0,1.51.54l.42.08.61.1.57.09.33,0h1.08a11.25,11.25,0,0,0,1.44-.06,6.87,6.87,0,0,0,1.41-.34l.16-.07.22-.11.21-.09.11-.07a2.12,2.12,0,0,0,.37-.19,2.8,2.8,0,0,1,.32-.2,1.57,1.57,0,0,1,.32-.15,1.12,1.12,0,0,1,.38-.07l.2,0,.18,0a10.28,10.28,0,0,1,.8.82,4.61,4.61,0,0,1,.6.93l.17.32c.07.16.16.33.25.52s.17.36.26.52a1.74,1.74,0,0,0,.16.29.72.72,0,0,0,.1.15l.16.22.15.23.09.14a1.88,1.88,0,0,1,.08.62.36.36,0,0,1-.2.28,2.41,2.41,0,0,1-.45.21,2.39,2.39,0,0,0-.68.43l-.06,0s0,0,0,0l0,0a4.4,4.4,0,0,1-.93.54,6.93,6.93,0,0,1-1,.34,9.2,9.2,0,0,1-1.07.21c-.36,0-.73.09-1.1.12l-.56,0-1,.07-1,.07c-.3,0-.49,0-.56.06h-1.15l-.25,0-.42,0-.42,0-.25,0H140a1.59,1.59,0,0,1-.31,0l-.2,0-.36-.08-.4-.1Z"/><path class="cls-1" d="M172.28,343.22c-.85-.33-1.57-.63-2.17-.92a17.08,17.08,0,0,1-1.52-.8,8,8,0,0,1-1-.67,8.46,8.46,0,0,1-.65-.57,5.67,5.67,0,0,1-.43-.45,2.79,2.79,0,0,0-.35-.34s-.06,0-.12-.08-.08-.09-.08-.11l-.07-.11a.3.3,0,0,1,0-.11l-.22-.21-.24-.25-.21-.19c-.06-.06-.09-.08-.1-.08l-.4-.63v0a0,0,0,0,0,0,0v0a5.31,5.31,0,0,1-.68-1.21,11.74,11.74,0,0,1-.46-1.34c-.12-.46-.24-.92-.35-1.39a13.83,13.83,0,0,0-.36-1.34,2.49,2.49,0,0,1-.09-.57,2.32,2.32,0,0,0-.07-.56c-.07-.28-.15-.55-.23-.83a4,4,0,0,1-.16-.82c0-.11,0-.3,0-.59s0-.59-.06-.92,0-.64-.06-.93,0-.51-.05-.64V326a8.28,8.28,0,0,1,.13-1.3c.07-.39.17-.8.3-1.26a1.14,1.14,0,0,0,.07-.21,3.84,3.84,0,0,0,.11-.4c0-.14.07-.27.1-.39s.05-.19.06-.22a6.19,6.19,0,0,1,.4-1.07,5.38,5.38,0,0,1,.4-.74,4.37,4.37,0,0,1,.44-.57,3.71,3.71,0,0,1,.46-.91,9,9,0,0,1,.76-.94,11.74,11.74,0,0,1,.93-.94c.33-.31.67-.61,1-.88a5,5,0,0,1,1.47-1c.57-.27,1.12-.51,1.63-.71l.28-.14.49-.23.49-.22a1.87,1.87,0,0,0,.28-.15l.15,0,.26-.09.27-.1.16-.06a.84.84,0,0,1,.22-.11.6.6,0,0,0,.21-.11h.49l.12,0h.15l.27-.05.3,0,.21-.05a5.44,5.44,0,0,1,1.47-.21h3.41l.39,0,.41,0,.29.05.22,0,.3.07.2,0a.47.47,0,0,1,.21.07l.21,0,.39,0,.39,0,.25,0a.62.62,0,0,0,.2.07l.19,0,.19.12.32.19.32.2.19.12a.85.85,0,0,0,.21.11l.2.12s.08,0,.16.1.14.1.17.1h.17a.4.4,0,0,1,.26.32,1.48,1.48,0,0,1,.09.45v.18l-.09.12-.15.16-.15.21c-.08.11-.17.23-.26.37l-.26.35-.15.2a1.33,1.33,0,0,0-.45.5c-.17.28-.35.56-.56.84a4,4,0,0,1-.65.74.74.74,0,0,1-.74.18c-.66-.17-1.29-.31-1.9-.42a13.06,13.06,0,0,0-1.92-.17h-.48a1.77,1.77,0,0,1-.32,0l-.16,0-.27.06-.25.07-.17,0-.29.05-.52.06-.52.06a1.59,1.59,0,0,0-.31.05l-.18,0-.33.11-.35.12-.27.1a6.52,6.52,0,0,0-1.48.86,9.11,9.11,0,0,0-1.23,1.18s-.11.13-.21.27l-.35.46-.36.46-.22.27c-.12.13-.24.26-.35.4a1.37,1.37,0,0,0-.26.51,1.85,1.85,0,0,0-.1.34c0,.17-.08.34-.13.53s-.08.36-.13.53a2.56,2.56,0,0,0-.09.35.24.24,0,0,0,0,.08v.12a1.32,1.32,0,0,0,.06.39,1.73,1.73,0,0,1,.05.42v0a1.85,1.85,0,0,0-.16.2c-.09.11-.13.17-.13.2V327c0,.56,0,1.17,0,1.83a7.27,7.27,0,0,0,.33,1.81l.29,1,0,0s0,.13.08.24.08.23.13.35.09.23.13.34a.53.53,0,0,0,.09.21.72.72,0,0,1,.3.39,1.82,1.82,0,0,0,.22.47,15.09,15.09,0,0,0,1,1.27A9.67,9.67,0,0,0,172.4,336a7.62,7.62,0,0,0,1.32.85,6.46,6.46,0,0,0,1.51.54l.42.08.61.1.58.09.33,0h1.07a11.25,11.25,0,0,0,1.44-.06,6.87,6.87,0,0,0,1.41-.34l.16-.07.23-.11.2-.09.11-.07a2.69,2.69,0,0,0,.38-.19,2.7,2.7,0,0,1,.31-.2,1.87,1.87,0,0,1,.32-.15,1.13,1.13,0,0,1,.39-.07l.19,0,.18,0a8.8,8.8,0,0,1,.8.82,4.61,4.61,0,0,1,.6.93,2.54,2.54,0,0,1,.17.32l.25.52.26.52a3.19,3.19,0,0,0,.16.29s0,.07.1.15.11.14.16.22l.15.23.09.14a1.64,1.64,0,0,1,.08.62.35.35,0,0,1-.19.28,2.91,2.91,0,0,1-.46.21,2.39,2.39,0,0,0-.68.43l-.05,0-.05,0,0,0a4.17,4.17,0,0,1-.93.54,6.53,6.53,0,0,1-1,.34,9.2,9.2,0,0,1-1.07.21c-.36,0-.73.09-1.1.12l-.56,0-1,.07-1,.07c-.3,0-.49,0-.56.06h-1.15l-.25,0-.42,0-.42,0-.25,0h-1.42a1.64,1.64,0,0,1-.32,0l-.19,0-.37-.08-.39-.1Z"/><path class="cls-1" d="M195.1,343.07l-.29,0-.51.07-.51.07-.29,0c-.51,0-1,0-1.54.07s-1,.07-1.54.07c-.09,0-.14,0-.14,0s0,0-.13,0a.92.92,0,0,1-.16-.15l-.16-.15V343a1.13,1.13,0,0,0,0-.14,1.22,1.22,0,0,0,0-.26,2.29,2.29,0,0,1,0-.25,1.14,1.14,0,0,1,0-.15,2.91,2.91,0,0,1,0-.33l0-.51c0-.18,0-.35,0-.5s0-.25,0-.31c0-.23,0-.58,0-1.07s0-1,0-1.64,0-1.25,0-1.92,0-1.31,0-1.92,0-1.14,0-1.62,0-.83,0-1.06c0-.07,0-.2,0-.4s0-.4,0-.62l0-.62c0-.19,0-.33,0-.4l-.57-14.78a1.1,1.1,0,0,0,0-.16c0-.07,0-.15,0-.24s0-.18,0-.26a.84.84,0,0,1,0-.19,3.12,3.12,0,0,1,.08-.45.22.22,0,0,1,.24-.17h.24l.33,0,.34,0a1.47,1.47,0,0,1,.28,0h3l.14,0,.29,0h.5a.74.74,0,0,1,.63.13,1.12,1.12,0,0,1,.31.5,1.74,1.74,0,0,1,.09.65c0,.22,0,.41,0,.57s0,.12,0,.26,0,.29,0,.46,0,.35,0,.52,0,.29,0,.37v.14a.9.9,0,0,1,0,.25c0,.06,0,.13-.08.2l.11,2.73v.2c0,.11,0,.24,0,.38s0,.27,0,.39a.38.38,0,0,0,0,.22c0,.57.06,1,.08,1.21s0,.39,0,.45v.07s0,0,0,.06,0,.18,0,.38,0,.56,0,1.08v1c0,.09.06.23.09.4a2,2,0,0,1,.06.4l.16,1.69v0s0,.08,0,.18,0,.23,0,.37,0,.26,0,.37,0,.17,0,.18c0,.2,0,.54,0,1s0,1,0,1.48,0,1,.06,1.48,0,.8,0,1v1.54l-.08,2v2.26a2,2,0,0,1,0,.43v1a.66.66,0,0,0,0,.15v1.11a1.1,1.1,0,0,1-.06.37.83.83,0,0,1-.17.32,1,1,0,0,1-.38.28.73.73,0,0,0-.32.06C195.28,343.2,195.19,343.17,195.1,343.07Z"/><path class="cls-1" d="M216,343.5a.32.32,0,0,1-.19-.35,2.29,2.29,0,0,0,0-.45s0-.06-.06-.11a.25.25,0,0,1,0-.11v-.16a.94.94,0,0,1,.11-.45.89.89,0,0,0,.11-.43v-.1l-.17,0-.16.07-.4.27-.6.38-.63.36a2.07,2.07,0,0,1-.46.18l-1.4.57H212a.35.35,0,0,0-.12,0l-.19,0-.2.05h-2.33l-.5,0c-.17,0-.37,0-.58-.07l-.19-.05-.32-.08-.32-.06-.19,0h-.93l-.59-.23a2.41,2.41,0,0,1-.39-.2l-.56-.3-.56-.31-.39-.19-.32-.15-.44-.22-.42-.21a1.73,1.73,0,0,1-.26-.12l-.09-.08-.17-.15-.19-.18-.15-.11a9.26,9.26,0,0,1-.86-1l-.83-1a3.63,3.63,0,0,1-.63-1.18,13.46,13.46,0,0,1-.41-1.55,15.41,15.41,0,0,1-.23-1.6c-.05-.53-.07-1-.07-1.36s0-.95,0-1.36,0-.83.07-1.23a10.46,10.46,0,0,1,.19-1.21,11.74,11.74,0,0,1,.35-1.31c0-.07.06-.22.14-.45l.24-.7c.08-.24.16-.42.22-.57s.08-.15.07,0a7,7,0,0,1,.75-1.53,8.32,8.32,0,0,1,1.06-1.31,9.85,9.85,0,0,1,1.28-1.13,17,17,0,0,1,1.42-1l.33-.19.56-.27.57-.28a2.83,2.83,0,0,1,.39-.17s.05,0,.11-.05l.24-.06a2.44,2.44,0,0,1,.26-.06l.23,0,.29-.07.21,0h3.53l1.22.34a8.3,8.3,0,0,1,1.13.37,7,7,0,0,1,1.06.54,5.23,5.23,0,0,1,1,.82h.07a1,1,0,0,1,0-.16c0-.06,0-.13,0-.2v-.21a.85.85,0,0,0,0-.13s0-.06,0-.13,0-.15,0-.23a1.32,1.32,0,0,1,.05-.23.62.62,0,0,0,0-.11.23.23,0,0,1,0-.26.63.63,0,0,1,.2-.23.77.77,0,0,1,.3-.11.34.34,0,0,1,.27,0h1.58l1.32,0c.43,0,.87.05,1.34.1l1.58.17.18.1a.19.19,0,0,1,.12.15c0,.11,0,.24,0,.4s0,.32,0,.49l0,.5a1.54,1.54,0,0,1,0,.43s0,.09,0,.21,0,.25,0,.39,0,.28,0,.4,0,.19,0,.21a1.18,1.18,0,0,1-.06.26c0,.14-.05.22-.05.24s0,.11,0,.23,0,.23,0,.35V325a.67.67,0,0,1,0,.21.41.41,0,0,1,0,.16.4.4,0,0,1-.07.16l0,4.23v2.77c0,.67,0,1.42,0,2.24s0,1.65,0,2.47,0,1.59,0,2.32,0,1.34.06,1.83t0,.27c0,.15,0,.32-.05.5s0,.34-.06.49a.92.92,0,0,0,0,.28v.28s-.1.08-.24.13a1.07,1.07,0,0,0-.24.1c-.32,0-.6,0-.83,0l-.67.08-.64.08a5.12,5.12,0,0,1-.81,0h-1.27l-.62,0-.63,0Zm-10.59-11.78a4.77,4.77,0,0,0,.31,1.75,9,9,0,0,0,.82,1.6l.11.17c0,.08.08.11.1.11.29.31.59.61.89.9a6.89,6.89,0,0,0,1,.76,4.92,4.92,0,0,0,1.08.53,3.86,3.86,0,0,0,1.25.19,3.67,3.67,0,0,0,1.17-.19c.39-.13.76-.27,1.11-.41l.21-.1.26-.13.24-.11.13-.08a4.45,4.45,0,0,0,1.1-1.19,7,7,0,0,0,.68-1.47,7.23,7.23,0,0,0,.36-1.61c.07-.55.11-1.09.14-1.6,0-.06,0-.16,0-.3l0-.45c0-.16,0-.31,0-.44s0-.23,0-.28l-.16-.32-.14-.27a1.12,1.12,0,0,1-.11-.22c-.24-.45-.48-.89-.73-1.31a2.69,2.69,0,0,0-1-1l-.33-.25-.38-.27-.4-.24a1.74,1.74,0,0,0-.36-.16l-.26-.07-.4-.11-.41-.09-.26-.05a.43.43,0,0,0-.32-.19,1.84,1.84,0,0,0-.47,0l-.52.08a1.76,1.76,0,0,1-.41.06,1.71,1.71,0,0,0-.57.1,3,3,0,0,0-.58.25,5.07,5.07,0,0,0-.54.36,3.72,3.72,0,0,0-.46.41l-.15.18-.25.3-.26.29-.14.18a4.21,4.21,0,0,0-1,1.78,9.82,9.82,0,0,0-.23,1.44C205.4,330.72,205.38,331.21,205.38,331.72Z"/><path class="cls-1" d="M228.29,342.72l-1.14-.61a10.17,10.17,0,0,1-1.06-.7c-.17-.16-.35-.31-.54-.46s-.37-.3-.53-.45a2.86,2.86,0,0,1-.4-.47,1.09,1.09,0,0,1-.18-.54,2.27,2.27,0,0,1,0-.24,1.77,1.77,0,0,0,0-.19,1.32,1.32,0,0,1,.12-.2.87.87,0,0,1,.08-.14l.07-.07.16-.17.27-.28.27-.28.19-.19a.87.87,0,0,0,.15-.2l.16-.23.27-.26.34-.33.29-.29.19-.19s.14-.09.28-.16l.27-.13h.24a.43.43,0,0,1,.27.13,3.48,3.48,0,0,1,.24.28,3.48,3.48,0,0,0,.26.3.78.78,0,0,0,.3.22c.25.15.52.31.8.5a9.94,9.94,0,0,0,.93.53,6.13,6.13,0,0,0,1.11.45,5.35,5.35,0,0,0,1.32.23.46.46,0,0,0,.4,0,2,2,0,0,0,.57-.22,2.74,2.74,0,0,0,.5-.38.71.71,0,0,0,.23-.43c0-.08,0-.2,0-.34a3.56,3.56,0,0,0-.06-.44,4.11,4.11,0,0,0-.1-.41,1.41,1.41,0,0,0-.12-.29,10,10,0,0,0-1.33-1.5,8.67,8.67,0,0,0-1.63-1.14,1.32,1.32,0,0,1-.28-.16c-.15-.09-.31-.2-.49-.3l-.49-.3a1.36,1.36,0,0,1-.26-.17l-.2-.14-.35-.24-.38-.26a3.16,3.16,0,0,1-.26-.2,1.83,1.83,0,0,0-.39-.32l-.41-.29a4.27,4.27,0,0,1-.39-.49c-.17-.25-.35-.51-.55-.78s-.38-.53-.56-.76a4.1,4.1,0,0,0-.36-.46,3.85,3.85,0,0,1-.9-1.86,9.07,9.07,0,0,1-.14-2,3.83,3.83,0,0,1,.17-.93c.1-.35.21-.67.33-1s.23-.56.33-.77.16-.31.19-.31a2.48,2.48,0,0,1,.23-.32,3.39,3.39,0,0,1,.31-.34c.1-.11.21-.21.32-.31l.28-.23a4.12,4.12,0,0,1,.87-.54,6.15,6.15,0,0,1,.91-.32c.31-.08.63-.16,1-.22l1-.19c.33,0,.76-.07,1.29-.08a8.7,8.7,0,0,1,1.91.18h.08a9.12,9.12,0,0,1,1.5.37,10.61,10.61,0,0,1,1.47.65,10.73,10.73,0,0,1,1.36.86,11,11,0,0,1,1.2,1.05l.23.3.33.39.29.36.17.2a.46.46,0,0,1,.08.21,1.27,1.27,0,0,1,0,.2,1.5,1.5,0,0,0,0,.2.18.18,0,0,1-.12.16,2.11,2.11,0,0,0-.41.38c-.19.2-.36.4-.54.6s-.34.39-.49.54-.23.22-.26.2l-.28.26-.43.39-.44.4-.32.27a1.47,1.47,0,0,0-.25.23.37.37,0,0,1-.29.08H237l-.11-.07a1,1,0,0,0-.15-.11l-.15-.11-.09-.07c-.11-.05-.29-.16-.55-.32l-.81-.53-.81-.53-.52-.34-.22,0-.32-.08-.33-.07-.22-.05h0a1.31,1.31,0,0,0-.29.11,1.27,1.27,0,0,0-.29.18.72.72,0,0,0-.21.25.39.39,0,0,0,0,.3,2,2,0,0,0,0,.4.71.71,0,0,0,.14.39,4.63,4.63,0,0,0,1.13,1.17,5.92,5.92,0,0,0,1.43.78,14.85,14.85,0,0,1,2.15,1,10.29,10.29,0,0,1,1.85,1.45l.22.25.39.4.4.41.26.27.25.26a.84.84,0,0,1,.16.19l.17.27a4.44,4.44,0,0,1,.24.39l.25.4.17.28a1.12,1.12,0,0,1,.17.41,4.89,4.89,0,0,1,.09.59q0,.33,0,.66a3.32,3.32,0,0,1,0,.56v.14a1.85,1.85,0,0,0,0,.24c0,.08,0,.16,0,.24a1,1,0,0,0,0,.14,6.51,6.51,0,0,1-1.09,2.92,11.34,11.34,0,0,1-2.19,2.32,5.4,5.4,0,0,1-.87.57,4,4,0,0,1-1,.35,7.51,7.51,0,0,1-1.16.21c-.42.05-.91.08-1.46.09a6.79,6.79,0,0,1-1.32-.16c-.44-.09-.89-.21-1.33-.33l-1.32-.39C229.14,342.94,228.71,342.82,228.29,342.72Z"/><path class="cls-1" d="M246.33,342.72l-1.14-.61a9.21,9.21,0,0,1-1.06-.7c-.17-.16-.35-.31-.54-.46s-.37-.3-.53-.45a2.44,2.44,0,0,1-.4-.47,1.09,1.09,0,0,1-.18-.54,2.27,2.27,0,0,1,0-.24c0-.1,0-.16,0-.19a.82.82,0,0,1,.12-.2.47.47,0,0,1,.08-.14l.06-.07.17-.17.26-.28.28-.28.19-.19.15-.2a2,2,0,0,0,.15-.23l.28-.26.33-.33.3-.29.19-.19a2.19,2.19,0,0,1,.28-.16l.27-.13h.24a.38.38,0,0,1,.26.13,2.26,2.26,0,0,1,.25.28,3.31,3.31,0,0,0,.25.3.89.89,0,0,0,.31.22c.25.15.52.31.8.5a9.94,9.94,0,0,0,.93.53,6.13,6.13,0,0,0,1.11.45,5.35,5.35,0,0,0,1.32.23.46.46,0,0,0,.4,0,2,2,0,0,0,.56-.22,2.44,2.44,0,0,0,.5-.38.73.73,0,0,0,.24-.43c0-.08,0-.2,0-.34a3.56,3.56,0,0,0-.06-.44c0-.15-.07-.28-.1-.41a1,1,0,0,0-.13-.29,9.94,9.94,0,0,0-1.32-1.5,9,9,0,0,0-1.63-1.14,1.32,1.32,0,0,1-.28-.16c-.15-.09-.31-.2-.49-.3l-.5-.3a2.93,2.93,0,0,1-.26-.17l-.19-.14-.35-.24-.38-.26a3.16,3.16,0,0,1-.26-.2,1.83,1.83,0,0,0-.39-.32l-.41-.29a3.38,3.38,0,0,1-.39-.49l-.55-.78-.56-.76a3,3,0,0,0-.37-.46,3.83,3.83,0,0,1-.89-1.86,9.73,9.73,0,0,1-.15-2,4.39,4.39,0,0,1,.17-.93c.11-.35.22-.67.34-1s.23-.56.33-.77.16-.31.19-.31a2.48,2.48,0,0,1,.23-.32,3.31,3.31,0,0,1,.3-.34l.33-.31.28-.23a4.12,4.12,0,0,1,.87-.54,5.66,5.66,0,0,1,.9-.32c.32-.08.64-.16,1-.22s.68-.12,1-.19.77-.07,1.3-.08a8.75,8.75,0,0,1,1.91.18h.07a9.23,9.23,0,0,1,1.51.37,10,10,0,0,1,1.46.65,10.17,10.17,0,0,1,1.37.86,11,11,0,0,1,1.2,1.05,2.42,2.42,0,0,0,.23.3l.32.39.3.36.17.2a.6.6,0,0,1,.08.21c0,.06,0,.13,0,.2a1.5,1.5,0,0,0,0,.2c0,.07,0,.12-.13.16a2.92,2.92,0,0,0-.41.38l-.54.6c-.17.21-.34.39-.48.54s-.23.22-.27.2l-.27.26c-.14.12-.29.25-.43.39l-.44.4-.33.27a3.09,3.09,0,0,0-.25.23.34.34,0,0,1-.28.08H255l-.11-.07-.15-.11c-.05,0-.11-.07-.15-.11l-.09-.07c-.11-.05-.29-.16-.55-.32l-.82-.53-.8-.53-.52-.34-.22,0-.33-.08-.32-.07-.22-.05h0a1.31,1.31,0,0,0-.29.11,1.08,1.08,0,0,0-.29.18.72.72,0,0,0-.21.25.39.39,0,0,0,0,.3,1.45,1.45,0,0,0,0,.4.71.71,0,0,0,.14.39,4.47,4.47,0,0,0,1.13,1.17,5.92,5.92,0,0,0,1.43.78,14.23,14.23,0,0,1,2.14,1,10,10,0,0,1,1.86,1.45l.22.25c.12.12.24.26.39.4l.4.41.26.27.25.26a.84.84,0,0,1,.16.19l.17.27a4.44,4.44,0,0,1,.24.39l.24.4.18.28a1.33,1.33,0,0,1,.17.41,3.5,3.5,0,0,1,.08.59c0,.22,0,.44,0,.66a4.88,4.88,0,0,1,0,.56.88.88,0,0,1,0,.14c0,.08,0,.15,0,.24a1.93,1.93,0,0,1,0,.24v.14a6.51,6.51,0,0,1-1.09,2.92,11.34,11.34,0,0,1-2.19,2.32,5.4,5.4,0,0,1-.87.57,4.13,4.13,0,0,1-1,.35,7.51,7.51,0,0,1-1.16.21c-.43.05-.91.08-1.46.09a6.79,6.79,0,0,1-1.32-.16c-.45-.09-.89-.21-1.33-.33l-1.32-.39C247.17,342.94,246.75,342.82,246.33,342.72Z"/><path class="cls-1" d="M262.56,343.72l-1-.09c-.1,0-.15,0-.16,0a.4.4,0,0,1,0-.12c0-.14,0-.26,0-.36a1.61,1.61,0,0,0,0-.37.76.76,0,0,0-.09-.31.62.62,0,0,1-.09-.28,1.5,1.5,0,0,1,0-.2.26.26,0,0,1,.09-.18c0-.17,0-.54,0-1.13s0-1.29,0-2.12-.05-1.74-.08-2.72-.06-2-.1-2.95-.07-1.9-.09-2.77,0-1.62,0-2.23a2.7,2.7,0,0,0,0-.47c0-.2-.05-.41-.08-.63s-.06-.43-.08-.63a1.44,1.44,0,0,1,0-.51s0-.08,0-.16a1,1,0,0,0,0-.19.09.09,0,0,1-.1-.09,1.1,1.1,0,0,0,0-.18l0-.15.1-.18a5.49,5.49,0,0,0,0-.79c0-.22,0-.48-.05-.78a1.21,1.21,0,0,0,0-.18l0-.23a2.62,2.62,0,0,1,0-.29.73.73,0,0,0-.07-.16.54.54,0,0,1-.06-.16.8.8,0,0,1,0-.16.75.75,0,0,1,0-.15v-.13a1.93,1.93,0,0,1,0-.24c0-.09,0-.17,0-.24a.22.22,0,0,1,0-.14l0,0a.15.15,0,0,0,0-.08,9.08,9.08,0,0,0,1.18-.2,5.77,5.77,0,0,1,1.18-.15,8.35,8.35,0,0,1,1.42,0l1.4.16.26,0,.34,0a.91.91,0,0,1,.31.12.35.35,0,0,1,.16.27,1.3,1.3,0,0,1,0,.5,1.23,1.23,0,0,0,0,.52v.11a0,0,0,0,1,0,0,2.74,2.74,0,0,0,.33-.15l.41-.2.42-.21.31-.15.21-.11.22-.12.21-.05a.5.5,0,0,0,.19-.08l.4-.22.49-.2.46-.17.26-.11a3.27,3.27,0,0,1,.91-.22l1-.05a6.2,6.2,0,0,1,1.65.13,9.79,9.79,0,0,1,1.62.49,8.46,8.46,0,0,1,1.41.72,5.86,5.86,0,0,1,1,.79l.27.35c.1.14.2.28.29.43a3.74,3.74,0,0,1,.23.44,1.13,1.13,0,0,1,.12.4.56.56,0,0,1-.11.27,2.63,2.63,0,0,1-.26.35,3.13,3.13,0,0,1-.3.32.84.84,0,0,1-.23.18s0,0-.09.08l-.15.1-.16.11-.1.07-.21.15-.26.21-.25.2a.8.8,0,0,0-.14.11,5.47,5.47,0,0,0-.58.5c-.19.17-.38.34-.59.5a3.69,3.69,0,0,1-.66.39,2,2,0,0,1-.78.18H274a.19.19,0,0,1-.09,0,.43.43,0,0,1-.13,0c-.49-.25-1-.48-1.56-.7a4.36,4.36,0,0,0-1.64-.3,1.42,1.42,0,0,0-1,.45,10,10,0,0,0-.73.86,2.55,2.55,0,0,1-.2.25,1.26,1.26,0,0,0-.2.27l-.14.24c-.07.11-.15.23-.22.36l-.24.41a2.74,2.74,0,0,0-.15.33,2.64,2.64,0,0,0-.21.91c0,.34-.05.65-.07.95a20.79,20.79,0,0,0-.23,3.29,26.6,26.6,0,0,0,.19,2.78c.06.65.13,1.28.21,1.9s.16,1.26.22,1.9c0,.07,0,.2,0,.39s0,.37,0,.57,0,.39.05.57,0,.32,0,.39l-.06,0-.06,0-.08,0h-.1l-.11,0-.11-.06Z"/><path class="cls-1" d="M288.71,343.11a2.76,2.76,0,0,0-.37-.08l-.63-.12-.16,0-.35-.1a2.85,2.85,0,0,1-.43-.16,2.42,2.42,0,0,1-.41-.27.52.52,0,0,0-.15-.07,2.24,2.24,0,0,1-.26-.1l-.26-.11-.15-.06a3.43,3.43,0,0,1-.62-.34l-.56-.45-.52-.48-.47-.45a14.5,14.5,0,0,1-1.54-1.71,10,10,0,0,1-1.16-2c-.26-.58-.47-1.1-.63-1.57a12.53,12.53,0,0,1-.36-1.4,12.82,12.82,0,0,1-.17-1.42c0-.49,0-1.05,0-1.69v-1.34a20,20,0,0,1,.53-1.93,12.72,12.72,0,0,1,.75-1.73,11.33,11.33,0,0,1,1-1.57,10.61,10.61,0,0,1,1.34-1.45,8.08,8.08,0,0,1,1.15-.93,8.7,8.7,0,0,1,1.27-.72l.16-.07a1,1,0,0,1,.21-.1l.21-.08.12-.05.27,0,.25,0,.21-.15.2-.15.12,0,.21-.05.19,0a.25.25,0,0,0,.11,0l.32-.08.54-.13.55-.14.33-.06a3,3,0,0,1,.52-.1l.8-.08.82-.07.56-.05h.56l.71,0a3.32,3.32,0,0,1,.68.11l1,.23,1,.18.42.2.62.32.62.34.4.23s.13.11.27.26l.5.49.52.54.37.41a1.34,1.34,0,0,0,.11.17l.21.29.23.33.19.27a13.44,13.44,0,0,1,1.06,2,12,12,0,0,1,.67,2,15,15,0,0,1,.37,2,19.06,19.06,0,0,1,.12,2.17V332c0,.2,0,.48-.08.83l-.09,1.05c0,.34-.06.65-.08.93a4,4,0,0,1-.06.48,10.51,10.51,0,0,1-.38,1.74,13.1,13.1,0,0,1-.64,1.63c-.22.29-.41.53-.54.73l-.42.57c-.15.18-.31.39-.5.61s-.44.49-.76.83a12.11,12.11,0,0,1-1.33.86,11.37,11.37,0,0,1-1.46.68,11.06,11.06,0,0,1-1.53.45,5.76,5.76,0,0,1-1.54.12h-1.23a.49.49,0,0,0-.13-.08l-.12,0-.16,0-.28,0-.29.05h-.17l-.33,0-.56-.07-.57-.08a1.12,1.12,0,0,1-.31-.06h-.18Zm-2.35-12.31q0,.51.09,1a4.09,4.09,0,0,0,.27.95.65.65,0,0,0,.09.19.79.79,0,0,1,.09.2c.05.16.1.32.15.5a5.44,5.44,0,0,0,.15.54,4.56,4.56,0,0,0,.18.52,2.44,2.44,0,0,0,.27.45,1.79,1.79,0,0,1,.18.19,3.2,3.2,0,0,1,.25.27c.09.08.16.17.24.24a.83.83,0,0,0,.14.14l.12.09a1.53,1.53,0,0,0,.23.15l.27.17.22.13.18.12.24.16a.53.53,0,0,0,.21.13.51.51,0,0,0,.18.08.8.8,0,0,0,.23.05,2.62,2.62,0,0,0,.57.2.86.86,0,0,0,.32,0l.29-.05a1.59,1.59,0,0,1,.47,0h.12l.24,0,.25,0,.2,0a4.26,4.26,0,0,0,1.57-.58A5.1,5.1,0,0,0,296.5,334a4.51,4.51,0,0,0,.31-1.65s0-.18,0-.44,0-.71.08-1.35a2.48,2.48,0,0,0-.19-.92,7.62,7.62,0,0,1-.33-.91,2.81,2.81,0,0,0-.82-1.21,10.11,10.11,0,0,0-1.17-.9c-.25-.17-.48-.31-.69-.43a4,4,0,0,0-.64-.27,3.45,3.45,0,0,0-.67-.16c-.23,0-.5-.06-.79-.08h-.72a3.52,3.52,0,0,0-.72.09,9.25,9.25,0,0,0-.93.25,5.85,5.85,0,0,0-.92.41,3.5,3.5,0,0,0-.79.58,2.15,2.15,0,0,0-.51.79l-.3.86a1.2,1.2,0,0,0-.2.41,3.54,3.54,0,0,0-.2,1.21A3.06,3.06,0,0,0,286.36,330.8Z"/><path class="cls-1" d="M314.11,343.11a2.76,2.76,0,0,0-.37-.08l-.63-.12-.16,0-.35-.1a2.85,2.85,0,0,1-.43-.16,2,2,0,0,1-.4-.27l-.16-.07-.26-.1-.26-.11-.15-.06a3.43,3.43,0,0,1-.62-.34l-.56-.45-.52-.48-.47-.45a14.5,14.5,0,0,1-1.54-1.71,10,10,0,0,1-1.16-2c-.26-.58-.47-1.1-.63-1.57a12.53,12.53,0,0,1-.36-1.4,12.82,12.82,0,0,1-.17-1.42c0-.49,0-1.05,0-1.69v-1.34a17.48,17.48,0,0,1,.54-1.93,11.54,11.54,0,0,1,.74-1.73,11.33,11.33,0,0,1,1-1.57,10.1,10.1,0,0,1,1.35-1.45,8,8,0,0,1,1.14-.93,9.26,9.26,0,0,1,1.27-.72l.16-.07a1,1,0,0,1,.21-.1l.21-.08.12-.05.27,0,.25,0,.22-.15.19-.15.12,0,.21-.05.19,0a.25.25,0,0,0,.11,0l.32-.08.54-.13.55-.14.33-.06a3,3,0,0,1,.52-.1l.8-.08.82-.07.56-.05h.56l.71,0a3.53,3.53,0,0,1,.69.11l1,.23,1,.18.42.2c.2.09.4.2.62.32l.62.34.4.23s.13.11.27.26l.5.49.52.54.37.41.11.17.21.29.23.33.19.27a13.44,13.44,0,0,1,1.06,2,13.12,13.12,0,0,1,.68,2,15,15,0,0,1,.36,2,19.06,19.06,0,0,1,.12,2.17V332c0,.2-.05.48-.08.83l-.09,1.05c0,.34-.06.65-.08.93a4,4,0,0,1-.06.48,10.51,10.51,0,0,1-.38,1.74,11.71,11.71,0,0,1-.64,1.63c-.22.29-.41.53-.54.73L326,340c-.15.18-.31.39-.5.61s-.43.49-.76.83a12.11,12.11,0,0,1-1.33.86,11.37,11.37,0,0,1-1.46.68,10.31,10.31,0,0,1-1.53.45,5.76,5.76,0,0,1-1.54.12h-1.23a.49.49,0,0,0-.13-.08l-.12,0-.16,0-.28,0-.29.05h-.17l-.33,0-.56-.07-.57-.08a1.12,1.12,0,0,1-.31-.06h-.18Zm-2.34-12.31c0,.34,0,.67.08,1a4.09,4.09,0,0,0,.27.95.65.65,0,0,0,.09.19.79.79,0,0,1,.09.2c.05.16.1.32.15.5a5.44,5.44,0,0,0,.15.54,3.24,3.24,0,0,0,.19.52,1.68,1.68,0,0,0,.27.45l.17.19a3.2,3.2,0,0,1,.25.27l.24.24a.83.83,0,0,0,.14.14l.12.09a1.53,1.53,0,0,0,.23.15l.27.17.22.13.18.12.24.16a.61.61,0,0,0,.21.13.51.51,0,0,0,.18.08.8.8,0,0,0,.23.05,2.62,2.62,0,0,0,.57.2.86.86,0,0,0,.32,0l.29-.05a1.59,1.59,0,0,1,.47,0h.12l.24,0,.25,0,.2,0a4.26,4.26,0,0,0,1.57-.58A5.1,5.1,0,0,0,321.9,334a4.51,4.51,0,0,0,.31-1.65s0-.18,0-.44,0-.71.08-1.35a2.3,2.3,0,0,0-.19-.92,7.62,7.62,0,0,1-.33-.91,2.81,2.81,0,0,0-.82-1.21,10.11,10.11,0,0,0-1.17-.9c-.25-.17-.48-.31-.69-.43a4,4,0,0,0-.64-.27,3.45,3.45,0,0,0-.67-.16c-.23,0-.5-.06-.79-.08h-.72a3.52,3.52,0,0,0-.72.09,9.25,9.25,0,0,0-.93.25,5.85,5.85,0,0,0-.92.41,3.5,3.5,0,0,0-.79.58,2.15,2.15,0,0,0-.51.79l-.3.86a1.2,1.2,0,0,0-.2.41,3.28,3.28,0,0,0-.14.58,3.36,3.36,0,0,0-.06.63A2.34,2.34,0,0,0,311.77,330.8Z"/><path class="cls-1" d="M330.7,340.35c0-.24,0-.61,0-1.13s0-1.1,0-1.75,0-1.35.07-2.07.06-1.42.07-2.07,0-1.24.06-1.75,0-.88,0-1.12a2.28,2.28,0,0,1,0-.35c0-.17,0-.38,0-.62s0-.48,0-.74,0-.5,0-.74,0-.45,0-.62,0-.29,0-.35a3,3,0,0,0,0-.33c0-.18,0-.4-.06-.64s0-.5-.05-.75,0-.46,0-.63,0-.26,0-.5-.05-.51-.07-.79-.05-.53-.07-.77a4.13,4.13,0,0,1,0-.5.66.66,0,0,1,0-.16.52.52,0,0,1,.07-.18.47.47,0,0,1,.35-.11h.36a.81.81,0,0,1,.2,0l.33,0c.11,0,.22,0,.33,0h.2l.29,0,.53-.08.54-.08.32-.05.52,0,.9-.08.89-.08.52,0,.09,0h.13a.33.33,0,0,1,.31.14.82.82,0,0,1,.09.42,5.33,5.33,0,0,1,0,.66,8,8,0,0,0,0,.89,2,2,0,0,0,.34-.29c.18-.17.39-.37.64-.58s.53-.43.82-.64a3.45,3.45,0,0,1,.85-.47l.82-.28c.24-.08.48-.14.71-.2a5.57,5.57,0,0,1,.73-.11,7.49,7.49,0,0,1,.87,0,6.88,6.88,0,0,1,1.45.17,6.49,6.49,0,0,1,1.39.47l.29.15.44.22.46.22.33.17.12.1.25.16.25.18a.52.52,0,0,0,.17.11l.18.11.16.11a2.13,2.13,0,0,1,.25.26l.43.48.43.48a3.35,3.35,0,0,0,.25.28h.11l.15-.16c.08-.08.12-.13.15-.13l1.33-1.09a11.34,11.34,0,0,1,1.24-.89,8.73,8.73,0,0,1,1.34-.65,6.85,6.85,0,0,1,1.59-.39,3.75,3.75,0,0,1,.82,0c.28,0,.56,0,.86,0a3.27,3.27,0,0,1,1.15.2c.35.14.7.29,1.07.46l.1.06.17.1.16.1.09.06.09,0,.15.06.13.06s.06,0,0,0a3.94,3.94,0,0,1,.56.46,3.79,3.79,0,0,1,.39.43c.12.13.22.26.32.38a1.62,1.62,0,0,0,.32.32,5.74,5.74,0,0,1,.57.85,6.4,6.4,0,0,1,.4.84,6.85,6.85,0,0,1,.27.8c.08.27.16.53.23.79.2.89.37,1.75.49,2.58s.23,1.63.31,2.41.16,1.54.23,2.29.14,1.49.22,2.23c0,.17,0,.47,0,.91s0,.92,0,1.41,0,1,0,1.41,0,.75,0,.93c0,0,0,.12,0,.26a3.64,3.64,0,0,0,0,.45c0,.16,0,.31,0,.45s0,.24,0,.27v.11a.4.4,0,0,1-.1.3,1.17,1.17,0,0,1-.27.15l-.35.08a1.08,1.08,0,0,0-.3.08.87.87,0,0,1-.4.06.54.54,0,0,0-.3.06l-3.37.07a.55.55,0,0,1-.36,0,.51.51,0,0,1-.24-.19.58.58,0,0,1-.13-.26,1.23,1.23,0,0,1,0-.21c0-.82,0-1.66,0-2.5s-.05-1.68-.07-2.5c0,0,0-.15,0-.32s0-.34,0-.54a4.45,4.45,0,0,0,0-.53c0-.17,0-.28,0-.33s0-.39,0-.68l0-.88c0-.29,0-.56,0-.8s0-.38,0-.43,0-.17-.05-.39-.08-.49-.12-.79-.09-.59-.13-.89-.09-.53-.11-.71a4,4,0,0,0-.14-.61,2.92,2.92,0,0,0-.24-.57A5,5,0,0,0,357,327.7a3.15,3.15,0,0,0-1.93-.6h-.5a1.39,1.39,0,0,0-.54.12.87.87,0,0,1-.29.12l-.38.1a1.5,1.5,0,0,0-.34.12.41.41,0,0,0-.21.2l-.21.22c-.09.09-.13.15-.13.17l-.14.24c-.07.11-.15.24-.23.39l-.24.39a1.24,1.24,0,0,0-.12.24c-.11.26-.2.49-.28.7s-.15.41-.22.61-.12.41-.17.62-.12.47-.19.75a2.49,2.49,0,0,0-.11.58c0,.23,0,.48,0,.73s0,.5,0,.73v1.33s0,.13,0,.28,0,.31,0,.48,0,.33,0,.48,0,.23,0,.26,0,.26,0,.56,0,.62,0,1,0,.66,0,1,0,.49,0,.57c0,.37,0,.72.07,1.06s0,.69,0,1.07a1.22,1.22,0,0,1-.07.41.59.59,0,0,1-.27.33,1.92,1.92,0,0,0-.48,0l-.39.05-.38.08a3.4,3.4,0,0,1-.45.08,6.19,6.19,0,0,1-.88.06l-.85,0c-.26,0-.47,0-.62-.05l-.14,0-.27-.07a1.66,1.66,0,0,1-.31-.12,1.16,1.16,0,0,1-.24-.2.42.42,0,0,1-.1-.26.55.55,0,0,1,.06-.28.54.54,0,0,0,.05-.24v-.29s0-.14,0-.32,0-.37,0-.58,0-.4,0-.58a2,2,0,0,0,0-.31,4,4,0,0,1,0-.7l0-.76q0-.41,0-.78c0-.25,0-.48,0-.7s0-.22,0-.47,0-.5-.06-.78l-.06-.78c0-.24,0-.4,0-.47s0-.14,0-.33,0-.42,0-.68l0-.76c0-.25,0-.46,0-.61a5.09,5.09,0,0,0-.08-.73,4.77,4.77,0,0,0-.17-.65,6,6,0,0,0-.26-.66c-.1-.22-.21-.46-.31-.72a3.29,3.29,0,0,0-1.4-1.66,4.35,4.35,0,0,0-2.24-.55,2.48,2.48,0,0,0-.76.13,3.07,3.07,0,0,0-.71.34,4.91,4.91,0,0,0-.65.5l-.6.57a2.89,2.89,0,0,0-.51.8,6.56,6.56,0,0,0-.35,1,8.33,8.33,0,0,0-.22,1.06c-.06.35-.1.67-.14,1,0,.09,0,.25,0,.46s0,.45-.07.69,0,.48-.06.69,0,.35,0,.43v2.06s0,.11,0,.24,0,.27,0,.43,0,.3,0,.43a1.49,1.49,0,0,1,0,.23v.84c0,.09,0,.22,0,.4s0,.36,0,.56,0,.38,0,.55a3.14,3.14,0,0,0,0,.32c0,.06,0,.18.05.37s0,.4.06.62,0,.43.06.63a2.11,2.11,0,0,0,.05.37V343a.51.51,0,0,1-.29.32,1.86,1.86,0,0,1-.49.06h-.17l-.2,0-.2,0h-.41l-.94.06-.82,0-.83,0h-1.06a.57.57,0,0,1-.47,0,.64.64,0,0,1-.29-.44,5.09,5.09,0,0,1-.18-1.05Q330.75,341.4,330.7,340.35Z"/><path class="cls-1" d="M383.34,197.32l-8-6.36a2.25,2.25,0,0,0-3.15.35l-4.14,5.2a2.22,2.22,0,0,0-3,.42l-48.85,61.35a2.24,2.24,0,0,0,.14,3c-.75,4.08-1.76,9.47-2.07,11.06l-1.82,2.28a2.24,2.24,0,1,0,3.51,2.79l1.82-2.29c1.46-.65,6.51-2.84,10.32-4.48a2.26,2.26,0,0,0,2.9-.53l18.13-22.78h0L378,211.07a6.39,6.39,0,0,1-.56,7.51l-15.12,19a2.24,2.24,0,1,0,3.51,2.79l15.12-19c3.62-4.55,3.21-10.38-.79-15a2.12,2.12,0,0,0-.54-.76l4.13-5.2A2.23,2.23,0,0,0,383.34,197.32Zm-54.68,68.46a2.32,2.32,0,0,0-1.13.17c-3.71,1.6-6.33,2.72-8.18,3.53.38-2,.9-4.78,1.63-8.74a2.16,2.16,0,0,0-.1-1.16L336.44,240l7.78,6.2Zm18.35-23-7.78-6.2,27.92-35.07,7.78,6.2Zm29.07-39.89-4.48-3.57,2.72-3.42,4.48,3.57Z"/><path class="cls-1" d="M305.77,282.55c-12.13,9.52-37.33,15.84-52.89,10.05-5.11-1.9-8.77-5-10.91-9.13,16.13-7.19,16.4-12.16,16.49-13.86.1-1.86-.62-4.52-4.65-6.71a11.1,11.1,0,0,0-12.23,1c-4.75,3.49-7.58,10-6.56,15.23.09.48.2.94.31,1.4-28.08,11-59.7,9.05-87-5.51-28.79-15.35-48.94-42-55.27-73a2.62,2.62,0,1,0-5.13,1c6.64,32.59,27.76,60.5,57.94,76.59C174.49,295,207.65,297,237.12,285.5c2.71,5.5,7.44,9.6,13.93,12a45.61,45.61,0,0,0,15.83,2.55c15.37,0,32.44-5.79,42.12-13.38a2.62,2.62,0,1,0-3.23-4.13Zm-65.54-4c0-.12,0-.23-.07-.34-.63-3.22,1.4-7.71,4.52-10a6.63,6.63,0,0,1,3.88-1.4,5.78,5.78,0,0,1,2.75.73c1.21.66,1.94,1.36,1.92,1.83C253.16,270.57,250.27,274,240.23,278.51Z"/><path class="cls-1" d="M132,173c.3,10.06,4.63,19.56,11.29,24.8a27.58,27.58,0,0,0,6.13,3.64c2.54,1.17,3.49,1.6,5.15,6.41,1.31,3.77,1.58,10.16,1.86,16.94.52,12,1.05,24.44,7.19,29.48,1.6,1.31,5.69,3.06,22.6,3.06,8.44,0,19-.45,29-1.24,16.44-1.28,16.53-1.92,16.81-3.81,1.07-7.32,1.45-14.54,1.81-21.52v-.12c.21-4,.43-8.24.79-12.48.73-8.74,1.94-9.17,7-11A60.42,60.42,0,0,0,248,204.6c13.37-6.47,19.78-17.2,17.14-28.72-2.46-10.71-12.42-19.1-22.68-19.1a20.86,20.86,0,0,0-14.31,5.89c-.24-9.17-2.93-17.42-7.43-22.75a21.61,21.61,0,0,0-15.86-7.69c-.57,0-1.16,0-1.76,0-9.4,0-18.59,4.28-24,11.18a24.6,24.6,0,0,0-5,11.86c-4.94-6.82-11.75-10.86-18.37-10.86-5.15,0-10.25,2.2-15.15,6.54C134.74,156.05,131.7,163.88,132,173Zm37.5-1.89a2.28,2.28,0,0,0,.89,3.11,2.34,2.34,0,0,0,3.11-.88c.11-.2,2.77-4.82,6.85-4.82a6.25,6.25,0,0,1,2.69.65,2.3,2.3,0,0,0,1.75.07A2.27,2.27,0,0,0,185,165a10.43,10.43,0,0,0-6.08-1c-1.29-6.82,0-13,3.81-17.82,4.54-5.81,12.34-9.41,20.36-9.41.5,0,1,0,1.49,0a17.15,17.15,0,0,1,12.63,6.08c5.84,6.91,6.94,18.29,6.11,26a2.31,2.31,0,0,0,1.47,2.39,2.35,2.35,0,0,0,2.68-.83c4.16-5.91,9.34-9,15-9,8.21,0,16.22,6.83,18.21,15.54,2.17,9.43-3.18,18-14.66,23.58a53.08,53.08,0,0,1-5.88,2.37c-6.12,2.16-9.1,3.69-10,14.88-.37,4.45-.59,8.86-.8,12.75-.34,6.71-.67,13.06-1.56,19.66-5.39.93-25.52,2.57-41.51,2.57-16.74,0-19.45-1.81-19.7-2-4.56-3.75-5.06-15.66-5.51-26.23-.31-7.09-.6-13.78-2.11-18.15-2.2-6.35-4.21-7.53-7.59-9.08a22.67,22.67,0,0,1-5.19-3.08c-5.54-4.35-9.28-12.72-9.54-21.32-.23-7.71,2.27-14.27,7-18.5,4-3.58,8.11-5.39,12.11-5.39,8.57,0,15.87,8.4,18.74,16.8A16,16,0,0,0,169.46,171.07Zm64,59.51Z"/><path class="cls-1" d="M177.11,203.48a8.63,8.63,0,0,0,4.71.81c4.59,15.44,6.14,41.32,4.66,45.26a1.7,1.7,0,0,0,0,1.33,1.73,1.73,0,0,0,1,.91,1.62,1.62,0,0,0,.62.11,1.76,1.76,0,0,0,1.63-1.12c.88-2.36.93-10.32.12-19.8a147.22,147.22,0,0,0-4.78-27.81,11.94,11.94,0,0,0,2.19-1.58,14.76,14.76,0,0,0,4,2.77c4.19,2,8.64,1.7,12-.79a17.45,17.45,0,0,0,5.09,2.5c-3.6,14.85-3.09,36.39-1,43.24a1.75,1.75,0,0,0,2.17,1.15,1.73,1.73,0,0,0,1.15-2.17c-1.36-4.44-1.86-14.68-1.21-24.88a98.48,98.48,0,0,1,2.36-16.83,8.8,8.8,0,0,0,1.3-.1c6.09-1,11.55-7.58,11-11.63-.21-1.71-1.57-3.54-4.76-3.54-.27,0-.56,0-.87,0-2.31.22-4.36,1.64-6.08,4.21a27.91,27.91,0,0,0-3.2,7.17,14.07,14.07,0,0,1-3.58-1.7,15,15,0,0,0,2.15-11.61c-.55-2-1.69-3.21-3.2-3.47-1.83-.34-3.73.86-5.63,3.51-2.07,2.88-2.06,6.32,0,9.69a14.2,14.2,0,0,0,1.55,2,8.27,8.27,0,0,1-7.79,0A11.78,11.78,0,0,1,189.6,199a12,12,0,0,0,.94-12.46c-1-1.83-2.67-2.75-4.18-2.37-2.07.51-3.21,3-3.39,7.27a13,13,0,0,0,2.09,7.47,10.33,10.33,0,0,1-1.1.88,24.92,24.92,0,0,0-3.63-7c-1.75-2.16-3.79-3.13-5.9-2.78a3.78,3.78,0,0,0-3.3,3.39C170.64,196.52,173.1,201.49,177.11,203.48Zm-2.55-9.56c.08-.43.21-.46.41-.49.83-.13,1.7.37,2.66,1.55a21.3,21.3,0,0,1,3.05,5.89,4.72,4.72,0,0,1-2-.51C176.12,199.1,174.28,195.77,174.56,193.92Zm13-5.66a8.54,8.54,0,0,1-.15,7.66,8.85,8.85,0,0,1-.92-4.35,9.35,9.35,0,0,1,.71-3.83A3,3,0,0,1,187.52,188.26Zm14.3,3.24c1.4-1.95,2.18-2.11,2.17-2.14a2.12,2.12,0,0,1,.5,1,11.86,11.86,0,0,1-1.45,8.38,9.69,9.69,0,0,1-1.06-1.42C201.06,195.84,200.29,193.63,201.82,191.5Zm11,11.49a23,23,0,0,1,2.51-5.5c1.11-1.66,2.29-2.56,3.5-2.67l.62,0c1.17,0,1.22.36,1.24.5C221,197.46,217.09,202.16,212.85,203Z"/><path class="cls-1" d="M202.46,122.64l1.51.15a.67.67,0,0,0,.43-.16.66.66,0,0,0,.22-.47l.47-25a.67.67,0,0,0-.21-.48.71.71,0,0,0-.51-.16l-3.3.4a.65.65,0,0,0-.56.67l1.36,24.41A.64.64,0,0,0,202.46,122.64Z"/><path class="cls-1" d="M241.07,110.46l-3.49-.28a.6.6,0,0,0-.58.27l-13.83,19.8a.63.63,0,0,0,.13.87l1.07.84a.63.63,0,0,0,.4.14.64.64,0,0,0,.5-.24l16.26-20.36a.66.66,0,0,0,.08-.65A.68.68,0,0,0,241.07,110.46Z"/><path class="cls-1" d="M176.09,131.66a.63.63,0,0,0,.54.3l1.7-.55a.68.68,0,0,0,.38-.38.7.7,0,0,0,0-.53l-11.21-21.39a.62.62,0,0,0-.76-.31l-3.05,1a.65.65,0,0,0-.36.95l12.78,20.94Z"/><path class="cls-1" d="M155.2,140h.1a.69.69,0,0,0,.45-.29l.59-.94a.63.63,0,0,0-.08-.79l-13.92-14.31a.66.66,0,0,0-.85-.07l-2.32,1.74a.62.62,0,0,0-.26.49.63.63,0,0,0,.22.51l15.65,13.51A.66.66,0,0,0,155.2,140Z"/><path class="cls-1" d="M240.41,148a.65.65,0,0,0,.28.57l1.25.85a.67.67,0,0,0,.37.11.75.75,0,0,0,.26,0l21-9.4a.63.63,0,0,0,.37-.45.67.67,0,0,0-.15-.56l-1.76-2a.65.65,0,0,0-.79-.14l-20.5,10.58A.65.65,0,0,0,240.41,148Z"/><path class="cls-1" d="M90.65,187.29l.68-3.8q1.44-.24,2.88-.63l2.2,3.16a4.76,4.76,0,0,0,6.46,1.15l7.18-5a4.66,4.66,0,0,0,1.16-6.46L109,172.54a26.62,26.62,0,0,0,1.59-2.47l3.79.67a4.66,4.66,0,0,0,5.38-3.75l1.54-8.62a4.63,4.63,0,0,0-3.75-5.38l-3.8-.68a24.13,24.13,0,0,0-.63-2.87l3.16-2.21a4.64,4.64,0,0,0,1.16-6.46l-5-7.18a4.76,4.76,0,0,0-6.46-1.15l-3.16,2.2a28.06,28.06,0,0,0-2.48-1.58l.68-3.8a4.63,4.63,0,0,0-3.75-5.38l-8.63-1.54a4.68,4.68,0,0,0-5.38,3.75l-.67,3.8a24.73,24.73,0,0,0-2.88.63l-2.2-3.16A4.77,4.77,0,0,0,71,126.2l-7.18,5a4.64,4.64,0,0,0-1.16,6.46l2.21,3.16a29,29,0,0,0-1.59,2.48l-3.8-.67a4.67,4.67,0,0,0-5.38,3.75L52.61,155a4.63,4.63,0,0,0,3.75,5.38l3.79.68a28.85,28.85,0,0,0,.63,2.87l-3.16,2.2a4.65,4.65,0,0,0-1.15,6.46l5,7.19a4.76,4.76,0,0,0,6.46,1.15l3.16-2.2a25.41,25.41,0,0,0,2.48,1.58l-.68,3.8a4.64,4.64,0,0,0,3.75,5.38L85.27,191a3.74,3.74,0,0,0,.82.08A4.63,4.63,0,0,0,90.65,187.29Zm-3.83-5.46-.71,4.55L77.56,185l.83-4.62a3.58,3.58,0,0,0-1.88-3.8,21.66,21.66,0,0,1-3.19-2.05,3.68,3.68,0,0,0-2.21-.75,3.52,3.52,0,0,0-2,.64l-3.72,2.71-5-7.05,3.85-2.68a3.59,3.59,0,0,0,1.36-4,22.2,22.2,0,0,1-.81-3.7,3.59,3.59,0,0,0-2.92-3.08l-4.54-.71,1.42-8.54,4.62.82a3.56,3.56,0,0,0,3.8-1.87,21.76,21.76,0,0,1,2-3.2,3.56,3.56,0,0,0,.11-4.23l-2.71-3.72,7-5,2.69,3.84a3.62,3.62,0,0,0,4,1.37,22.34,22.34,0,0,1,3.71-.82,3.58,3.58,0,0,0,3.07-2.92L87.8,127l8.55,1.43-.83,4.62a3.58,3.58,0,0,0,1.88,3.8,22.7,22.7,0,0,1,3.19,2,3.62,3.62,0,0,0,4.24.12l3.72-2.71,5,7L109.73,146a3.58,3.58,0,0,0-1.36,4,22.43,22.43,0,0,1,.81,3.72,3.57,3.57,0,0,0,2.92,3.06l4.53.79-1.42,8.47-4.62-.82a3.58,3.58,0,0,0-3.8,1.87,21.4,21.4,0,0,1-2,3.2,3.57,3.57,0,0,0-.11,4.24l2.7,3.71-7,5-2.68-3.85a3.62,3.62,0,0,0-4-1.36,22.56,22.56,0,0,1-3.71.82A3.57,3.57,0,0,0,86.82,181.83Z"/><path class="cls-1" d="M103.91,159.71A17.21,17.21,0,1,0,87,173.91,17.25,17.25,0,0,0,103.91,159.71ZM87,169.18a12.7,12.7,0,0,1-2.21-.2,12.45,12.45,0,1,1,2.21.2Z"/><path class="cls-1" d="M81.3,209.53l-2.18-.39c-.08-.44-.18-.87-.29-1.31l1.82-1.27a3.48,3.48,0,0,0,.86-4.86L78.23,197a3.61,3.61,0,0,0-4.87-.87l-1.82,1.27c-.36-.25-.74-.5-1.13-.72l.39-2.18A3.49,3.49,0,0,0,68,190.42l-5.66-1a3.54,3.54,0,0,0-4.05,2.83l-.39,2.18c-.44.08-.87.18-1.31.29l-1.27-1.82a3.59,3.59,0,0,0-4.87-.87l-4.71,3.29a3.42,3.42,0,0,0-1.44,2.25,3.48,3.48,0,0,0,.57,2.62L46.11,202c-.26.37-.5.75-.73,1.14l-2.18-.4a3.55,3.55,0,0,0-4.05,2.83l-1,5.66a3.44,3.44,0,0,0,.57,2.62A3.48,3.48,0,0,0,41,215.28l2.18.39c.08.44.18.87.29,1.31l-1.82,1.27a3.49,3.49,0,0,0-.86,4.86L44,227.83a3.6,3.6,0,0,0,4.87.87l1.82-1.27c.37.26.75.5,1.13.72l-.39,2.18a3.5,3.5,0,0,0,2.83,4.06l5.66,1a3.14,3.14,0,0,0,.61,0A3.48,3.48,0,0,0,64,232.57l.39-2.18c.44-.08.88-.17,1.31-.29L67,231.92a3.59,3.59,0,0,0,4.87.87l4.71-3.29a3.48,3.48,0,0,0,.87-4.87l-1.26-1.81c.25-.37.49-.75.72-1.13l2.19.39a3.54,3.54,0,0,0,4-2.83l1-5.66a3.44,3.44,0,0,0-.57-2.62A3.5,3.5,0,0,0,81.3,209.53Zm-7.54,9.52a15.34,15.34,0,0,1-1.3,2,2.79,2.79,0,0,0-.09,3.31l1.47,2.11L70,229.21,68.5,227.1A2.86,2.86,0,0,0,65.36,226a13.83,13.83,0,0,1-2.36.52,2.79,2.79,0,0,0-2.4,2.28l-.45,2.53-4.65-.83L56,228a2.81,2.81,0,0,0-1.46-3,14.45,14.45,0,0,1-2-1.31,2.86,2.86,0,0,0-3.31-.08L47,225.12l-2.7-3.88,2.11-1.47a2.79,2.79,0,0,0,1.06-3.14,14.74,14.74,0,0,1-.52-2.35,2.79,2.79,0,0,0-2.28-2.41l-2.53-.45.83-4.65,2.53.45a2.77,2.77,0,0,0,3-1.46,14.29,14.29,0,0,1,1.3-2,2.79,2.79,0,0,0,.09-3.32l-1.47-2.11,3.88-2.7,1.46,2.11a2.84,2.84,0,0,0,3.14,1.07,13.62,13.62,0,0,1,2.36-.52,2.79,2.79,0,0,0,2.4-2.28l.45-2.53,4.65.83-.45,2.52a2.82,2.82,0,0,0,1.47,3,14,14,0,0,1,2,1.3,2.84,2.84,0,0,0,3.31.09l2.11-1.47,2.7,3.87L75.83,205a2.78,2.78,0,0,0-1.07,3.14,14.62,14.62,0,0,1,.52,2.36,2.8,2.8,0,0,0,2.28,2.4l2.53.45L79.26,218l-2.53-.45A2.81,2.81,0,0,0,73.76,219.05Z"/><path class="cls-1" d="M62.6,204.15a8.22,8.22,0,0,0-1.48-.13,8.34,8.34,0,0,0-1.45,16.56,8.83,8.83,0,0,0,1.47.13,8.34,8.34,0,0,0,1.46-16.56Zm-2.31,12.93a4.81,4.81,0,0,1-3.09-2,4.8,4.8,0,0,1,3.92-7.53,4.79,4.79,0,1,1-.83,9.51Z"/><path class="cls-1" d="M198.13,68.77a112.65,112.65,0,0,0-92,47.82,2.62,2.62,0,1,0,4.28,3A107.19,107.19,0,0,1,287.92,239.73a2.63,2.63,0,0,0,.76,3.63,2.6,2.6,0,0,0,1.43.43,2.63,2.63,0,0,0,2.2-1.19A112.44,112.44,0,0,0,198.13,68.77Z"/></svg>