<svg id="Layer_1" data-name="Layer 1" xmlns="http://www.w3.org/2000/svg" viewBox="0 0 506.13 198.21"><defs><style>.cls-1{fill:#fff;}</style></defs><path class="cls-1" d="M60.18,125.34l-.09-2.63s-.05-.07-.08-.15,0-.14,0-.16a.46.46,0,0,1,.06-.16.46.46,0,0,0,.06-.16v-.42a.71.71,0,0,1,0-.16v-.61a.19.19,0,0,1-.15-.14.71.71,0,0,1,0-.25.52.52,0,0,1,0-.23c0-.07.07-.11.12-.11s0-.14,0-.28,0-.28,0-.43,0-.29,0-.42a1.42,1.42,0,0,1,0-.28v-1.61q0-.89-.06-1.77a14.87,14.87,0,0,1,0-1.77,1.17,1.17,0,0,1-.12-.21l-.12-.23v0a.06.06,0,0,1,0,0s0,0,0,0a.66.66,0,0,1,0-.15.59.59,0,0,1,.12-.14s0-.15,0-.28,0-.28,0-.43,0-.29,0-.42,0-.23,0-.29c0-.9,0-1.78,0-2.66s-.1-1.78-.16-2.67a4.67,4.67,0,0,1-.05-.56c0-.3,0-.62-.06-1s0-.65-.05-.95,0-.48,0-.56,0-.06,0-.14,0-.17,0-.27-.05-.2-.08-.31a2.06,2.06,0,0,0-.07-.25,3.42,3.42,0,0,0-.18-.54,1,1,0,0,0-.34-.43,5.24,5.24,0,0,0-1-.14c-.31,0-.65,0-1,0h-.58l-.27,0h-.28l-.26,0-.27,0-.2,0-.21,0a.46.46,0,0,0-.22.07h0a1.62,1.62,0,0,1-.51-.11.54.54,0,0,1-.29-.36,9.91,9.91,0,0,1-.21-2c0-.65,0-1.31,0-2,0-.08,0-.23,0-.43s0-.4,0-.61,0-.41,0-.61,0-.33,0-.42a.45.45,0,0,1,.35-.25,1.59,1.59,0,0,1,.42,0h3.31c.44,0,.87,0,1.29-.07a11.15,11.15,0,0,1,1.3,0h.55l.86,0,1,0h2.42a19.27,19.27,0,0,1,2.39-.1l2.42,0,.28,0a1.5,1.5,0,0,0,.35-.07h.75a.59.59,0,0,1,.36.12.48.48,0,0,1,.17.26,1.23,1.23,0,0,1,0,.35,2.34,2.34,0,0,0,0,.38c0,.13,0,.35.05.66s0,.63,0,1,0,.67.06,1,0,.52,0,.63,0,.13,0,.28,0,.27,0,.33A4.23,4.23,0,0,1,72,100a.73.73,0,0,1-.37.47,1.62,1.62,0,0,1-.68.09q-.42,0-1.08,0l-.31,0-.54,0-.56,0-.43,0a1.34,1.34,0,0,0-.25,0l-.39.05-.38.08-.25,0a1.7,1.7,0,0,0-.1.49c0,.13,0,.29,0,.46s0,.28,0,.39a1.87,1.87,0,0,0,.1.45l0,3.86a2.1,2.1,0,0,1,.08.85,3.49,3.49,0,0,0,0,.86s0,.09,0,.18a2.64,2.64,0,0,1,0,.29c0,.1,0,.2,0,.3a2,2,0,0,1,0,.22c.06.45.11.89.14,1.32s.06.85.08,1.27,0,.85.07,1.29.08.88.14,1.34l.09,2.14c0,.4,0,.75,0,1.07a6.15,6.15,0,0,0,.1,1.06.49.49,0,0,0,0,.12.27.27,0,0,1,0,.12v.11l0,.08a.3.3,0,0,0,0,.11l0,2.83,0,.07a.24.24,0,0,1,0,.12.69.69,0,0,1,0,.17c0,.1,0,.15,0,.18q-.09.58-.15,1.32a9.94,9.94,0,0,0,0,1.33l-.23.2-6.61.15Z"/><path class="cls-1" d="M75.12,125.92h-.21q-.12,0-.12-.15v0c-.11.1-.22.07-.32-.1a2.63,2.63,0,0,1-.11-1.16v-.26c0-.79,0-1.56,0-2.32s.08-1.48.12-2.19.08-1.37.12-2,0-1.26,0-1.84a.49.49,0,0,0-.11-.33.39.39,0,0,1-.11-.29v-.11a.66.66,0,0,1,.09-.18.77.77,0,0,1,.13-.17.49.49,0,0,0,0-.13c0-.08-.05-.17-.07-.27s0-.21-.08-.31a1.29,1.29,0,0,1,0-.24c0-.09,0-.23,0-.41s0-.38,0-.57,0-.37,0-.53,0-.27,0-.32,0-.27,0-.55,0-.58,0-.9,0-.63,0-.91,0-.46,0-.55c0-1.09,0-2.16.08-3.21s0-2.1,0-3.16c0-.07,0-.14,0-.19a.3.3,0,0,1,.11-.18V100c0-.4,0-.75,0-1.07s0-.63.06-.93l.06-.93q0-.48,0-1.08c0-.06,0-.19,0-.4a3.73,3.73,0,0,0,0-.4,1.31,1.31,0,0,0,0-.29c0-.14,0-.28,0-.43a2.18,2.18,0,0,1,0-.4c0-.12.08-.18.17-.18l1.25-.3.14,0,.24,0,.23,0,.15,0H80l.35,0,.37,0,.25,0a.66.66,0,0,1,.36.15.67.67,0,0,1,.27.36,8.71,8.71,0,0,1,.23,1.37c.05.47.11.89.18,1.25q0,.16,0,.69c0,.35,0,.76,0,1.22s0,1,.06,1.47,0,1,.06,1.48,0,.87,0,1.22,0,.57,0,.69v.22a2.79,2.79,0,0,0,.69-.36c.19-.15.4-.29.63-.44l.12-.05.22-.1.2-.1a.75.75,0,0,0,.12-.07,5.67,5.67,0,0,1,2.13-.72,17.23,17.23,0,0,1,2.28-.15h1.08l.17,0,.33.09.36.12.28.07.22.08.41.15.45.17.34.12a4,4,0,0,1,.75.43,6.23,6.23,0,0,1,.7.57c.22.2.43.42.63.64s.39.43.58.62c0,0,.06.11.11.28a1.38,1.38,0,0,0,.11.28c0,.08.1.19.16.33l.21.41c.07.14.12.26.18.37a.69.69,0,0,0,.09.17.5.5,0,0,0,0,.16,2.9,2.9,0,0,0,.09.28c0,.11.07.21.1.3l.07.21a6.87,6.87,0,0,1,.06.73c0,.38,0,.81,0,1.28s0,1,0,1.43,0,.87,0,1.16l-.08,1.85.13,1.4v.31a13.21,13.21,0,0,0,.06,1.91c.07.77.1,1.61.1,2.53v1.12c0,.15,0,.4,0,.76s0,.74,0,1.14,0,.78,0,1.13,0,.62,0,.77a1.21,1.21,0,0,1-.43.47,1.26,1.26,0,0,1-.6.29l-.88,0c-.52,0-1.37,0-2.56-.07a.46.46,0,0,1-.16.08.27.27,0,0,1-.18,0h-.15l-.25,0-.25,0-.13,0-.26,0-.37,0-.37,0h-.27l-.19,0c-.11,0-.18,0-.2,0H89l-.12-.12a.69.69,0,0,1-.12-.11v-.11a.34.34,0,0,0,0-.15,2.56,2.56,0,0,0,0-.27l0-.26c0-.08,0-.13,0-.16s0-.3,0-.65,0-.72,0-1.12,0-.77,0-1.12,0-.56,0-.65,0-.21,0-.45,0-.5.06-.78,0-.53.07-.77,0-.4,0-.46,0-.18,0-.43,0-.54,0-.87l.06-1c0-.33,0-.59,0-.78s0-.33,0-.62v-.93c0-.33,0-.64,0-.92s0-.49,0-.62a1.49,1.49,0,0,0,0-.22c0-.11,0-.23-.07-.35l-.06-.34a1.58,1.58,0,0,1,0-.23v-.11l-.11-.33c0-.16-.1-.34-.16-.52s-.11-.36-.17-.53-.09-.27-.1-.33a2.69,2.69,0,0,0-.14-.32.7.7,0,0,0-.15-.19,1.56,1.56,0,0,0-.19-.14,2.21,2.21,0,0,1-.28-.23l-.4-.31a1,1,0,0,0-.32-.17,1.36,1.36,0,0,0-.35-.07H85.66a2.23,2.23,0,0,0-.53.1,3,3,0,0,0-.93.55,5.33,5.33,0,0,0-.77.87,5.59,5.59,0,0,0-.59,1,6.65,6.65,0,0,0-.37,1,.59.59,0,0,0-.09.23,1.37,1.37,0,0,0,0,.29.4.4,0,0,0,0,.16c0,.08,0,.17,0,.26l0,.27a1.19,1.19,0,0,1,0,.15,4.59,4.59,0,0,1-.1.48c-.05.24-.12.5-.19.78l-.22.78c-.07.24-.11.4-.14.46a1.42,1.42,0,0,0,0,.32,1.86,1.86,0,0,1-.06.31c0,.21-.06.52-.1.91l-.15,1.22c-.06.41-.1.78-.14,1.11s-.06.53-.06.6v1.16c0,.11,0,.29,0,.56s0,.53,0,.81,0,.53,0,.76a1.32,1.32,0,0,1,0,.42c0,.25,0,.53,0,.85s0,.59,0,.83v.09a.37.37,0,0,1,0,.16.73.73,0,0,1-.15.17.83.83,0,0,1-.31.12Z"/><path class="cls-1" d="M98.49,112.78c.08-.46.17-.91.28-1.35s.24-.88.38-1.33.18-.61.25-.86.15-.53.25-.84a.73.73,0,0,1,0-.2c0-.11.06-.23.11-.37s.08-.24.12-.35.06-.17.07-.2a4,4,0,0,1,.6-1.17c.26-.35.53-.69.82-1l.12-.14c.07-.08.14-.17.23-.26l.25-.27.16-.19.08-.09.12-.18a1.4,1.4,0,0,1,.12-.18.36.36,0,0,1,.09-.09,11.36,11.36,0,0,1,1.73-1.21,13.64,13.64,0,0,1,4-1.54,11.52,11.52,0,0,1,2.08-.23,13.81,13.81,0,0,1,2.4,0,7.7,7.7,0,0,1,2.33.62,9.61,9.61,0,0,1,1.58.63,11.23,11.23,0,0,1,1.12.69c.3.23.55.43.75.61a2.31,2.31,0,0,0,.52.38c.39.34.73.67,1,1a10.36,10.36,0,0,1,1.56,2.12,13.33,13.33,0,0,1,.65,1.31c0,.11.09.31.16.6s.14.6.21.93.15.63.21.92.1.49.11.61a.62.62,0,0,1,0,.16,3,3,0,0,1,0,.32v.65c0,.08,0,.18,0,.31s0,.26,0,.39v.34a.41.41,0,0,1,0,.17,1.44,1.44,0,0,1,0,.24c0,.11-.08.24-.12.37s-.07.25-.1.37,0,.19,0,.21a2.08,2.08,0,0,1-.75.52,3.2,3.2,0,0,1-.89.17c-.34,0-.75.05-1.23.05s-1.06,0-1.75.12H116a.35.35,0,0,1-.16.06,1,1,0,0,1-.25,0,.79.79,0,0,1-.23,0c-.07,0-.11-.06-.12-.11h-.85a.92.92,0,0,1-.23,0l-.06,0H114l-1,0-1.18,0-1.19,0h-1c-.45,0-.85,0-1.2,0l-1-.06-1,0q-.54,0-1.2,0H105a.15.15,0,0,0-.13.11,1,1,0,0,0,0,.28,1.12,1.12,0,0,1,0,.24c.11.45.19.77.23,1a2.51,2.51,0,0,0,.13.41.48.48,0,0,0,.14.2c0,.06.14.17.27.35a.21.21,0,0,0,.06.08l.15.14.15.14s.06.07.06.09a3.6,3.6,0,0,0,1.63,1.42,4.65,4.65,0,0,0,2.06.4h.71a3.78,3.78,0,0,1,.54,0l.28,0,.23,0a1.58,1.58,0,0,0,.4,0c.18,0,.42-.07.74-.14l1.32-.3.2-.1.4-.2.41-.22.24-.12c.32-.2.61-.39.87-.58l.72-.54c.22-.16.42-.3.61-.42a2.61,2.61,0,0,1,.57-.3h.11s.07,0,.11,0,.08.06.08.09a4.82,4.82,0,0,0,.5.38l.68.48.67.47a4.37,4.37,0,0,1,.46.4l.26.19.43.33a3.37,3.37,0,0,1,.39.33c.11.11.17.16.17.18v.07a.11.11,0,0,0,0,.06.43.43,0,0,1,0,0,1.2,1.2,0,0,1-.27.82c-.2.24-.4.47-.61.69-.58.64-1.2,1.25-1.85,1.86a10.07,10.07,0,0,1-2.14,1.5,4.3,4.3,0,0,1-.74.25,7,7,0,0,0-.75.21,6.91,6.91,0,0,1-.93.22c-.3,0-.59.07-.87.08s-.59,0-.89,0-.63,0-1,0a21.13,21.13,0,0,1-2.55-.09,14.8,14.8,0,0,1-2.5-.51,8.34,8.34,0,0,1-.89-.32,6.18,6.18,0,0,1-1.49-.88c-.24-.18-.48-.37-.73-.59q-.66-.56-1.32-1.08a8.15,8.15,0,0,1-1.27-1.23s-.08-.08-.16-.22a1.85,1.85,0,0,1-.14-.26l-.15-.18-.23-.3-.24-.29-.14-.18a2.36,2.36,0,0,1-.16-.29c-.08-.16-.17-.34-.28-.54s-.21-.41-.3-.61-.16-.36-.21-.48a.5.5,0,0,1-.08-.15.9.9,0,0,1,0-.15q-.22-1.23-.39-2.4a17.69,17.69,0,0,1-.14-2.44Zm13.27-6a7.65,7.65,0,0,0-1.77.23,5.2,5.2,0,0,0-1.6.76,5.36,5.36,0,0,0-.59.43,6.64,6.64,0,0,0-.63.56,3.5,3.5,0,0,0-.52.66,1.36,1.36,0,0,0-.2.68c.32,0,.62-.07.89-.12a7.93,7.93,0,0,1,.88-.09h.07l.24,0,.43,0,.43,0h2l.47,0,.61,0,.54,0h2l1,0,.68,0a.1.1,0,0,0,.08,0l0,0a.36.36,0,0,0,0-.11.52.52,0,0,0-.08-.11s-.06-.11-.1-.19l-.14-.25-.13-.2c0-.06-.06-.09-.08-.1a4.69,4.69,0,0,0-2.07-1.51A6.27,6.27,0,0,0,111.76,106.82Z"/><path class="cls-1" d="M133.7,125a.57.57,0,0,1,0-.16c0-.09,0-.15,0-.17a.62.62,0,0,1,0-.19v-.16a.57.57,0,0,0,0-.12c0-.84,0-1.72-.11-2.62s-.11-1.79-.11-2.63c0-.49,0-1,.06-1.47s0-1,0-1.44a.41.41,0,0,0,0-.3c0-.13-.06-.28-.09-.43a3.87,3.87,0,0,1-.06-.46.4.4,0,0,1,.14-.34c0-.49,0-1,0-1.48a9.89,9.89,0,0,0-.18-1.5c0-1.31-.1-2.7-.2-4.16s-.13-3-.1-4.62a5,5,0,0,1,0-.55v-.95c0-.34,0-.65,0-.94s0-.48,0-.55v-.51a6.84,6.84,0,0,0,0-1.37c0-.48-.06-.94-.07-1.4a5.65,5.65,0,0,1,.1-1.26,1.78,1.78,0,0,1,.55-1,6.68,6.68,0,0,1,.84-.14c.3,0,.57,0,.82,0h.15l.29,0,.31,0h.24a.94.94,0,0,0,.25,0h1.2l.29,0,.64,0,.72,0,.59,0,.15,0a.45.45,0,0,1,.17,0,.29.29,0,0,1,.14.08s.08.09.08.11v3.89l-.11.19v3.86l-.13,1.92v.13a2.28,2.28,0,0,0,.26-.33l.4-.58.4-.57.24-.35a3.26,3.26,0,0,0,.5-.73,6.45,6.45,0,0,1,.47-.76c.45-.59.87-1.16,1.26-1.7l1.16-1.6c.39-.52.79-1,1.2-1.55s.85-1,1.34-1.6l.42-.4a1.17,1.17,0,0,0,.29-.38c0-.09.13-.12.29-.1l.38,0s.07,0,.18,0H150a.68.68,0,0,0,.21,0l3.24-.12a.62.62,0,0,0,.24,0l.41,0,.42,0a1.25,1.25,0,0,1,.27,0h.13l.23,0,.23,0h.14a2.12,2.12,0,0,1,.36.21.2.2,0,0,1,.06.29c-.07.15-.13.28-.17.38l-.14.29-.17.29c-.06.11-.15.24-.26.4-.47.48-.87.9-1.2,1.27s-.64.72-.92,1-.57.63-.83.94-.57.65-.91,1-.51.68-.76,1a5.17,5.17,0,0,1-.84,1l-3.65,4.7-.21.26-.41.54-.4.55a1.63,1.63,0,0,0-.17.27,4,4,0,0,1,.64.66c.19.26.37.52.55.8s.35.56.55.83a4.28,4.28,0,0,0,.66.75,1.85,1.85,0,0,1,.21.23l.2.23.13,0,.11,0,.11.11a.81.81,0,0,1,.38.17,2.35,2.35,0,0,1,.3.33,4.56,4.56,0,0,1,.27.39,3.73,3.73,0,0,0,.28.38,2,2,0,0,1,.34.51,3,3,0,0,0,.32.55l.07,0s0,0,0,.08a.49.49,0,0,1,.4.19.7.7,0,0,1,0,.46l0,.08a.52.52,0,0,0,.08.11l.12.19.12.16a.36.36,0,0,0,.11.12l.2.18.19.19a.65.65,0,0,0,.15.11.25.25,0,0,0,0,.25l.1.22.11.15c0,.07.1.14.14.21a1.4,1.4,0,0,0,.12.18l.07.11.21.09a.5.5,0,0,0,.22.09,1,1,0,0,1,.14.28,1.5,1.5,0,0,0,.16.38l.51.61c.15.16.34.35.57.56s.28.34.52.66l.79,1,.77,1,.51.66a8,8,0,0,1,.56.86,2,2,0,0,1,.28,1c0,.08,0,.17,0,.29a.24.24,0,0,1-.16.23h-.25a6.78,6.78,0,0,1-1.42.15q-.72,0-1.47.06l-.19,0-.34,0-.35,0h-1.76a.74.74,0,0,0-.39,0,.82.82,0,0,1-.51-.1,3,3,0,0,1-.51-.33,4.53,4.53,0,0,1-.57-.51,7.68,7.68,0,0,0-.69-.82c-.25-.26-.47-.52-.69-.78l-.14-.2-.19-.21a2.25,2.25,0,0,0-.21-.24l-1.39-1.72a1.09,1.09,0,0,1-.08-.14,1.37,1.37,0,0,0-.13-.2l-.14-.19-.08-.12a.45.45,0,0,0-.3-.14q-.21,0-.24-.18a1.24,1.24,0,0,1,0-.21.44.44,0,0,0,0-.23,2.73,2.73,0,0,1-.21-.3l-.17-.24-.14-.19s0,0,0-.08a.13.13,0,0,0-.08,0,.57.57,0,0,0-.17-.12c-.1,0-.14-.08-.14-.11s0,0-.08-.14a1.63,1.63,0,0,1,0-.18l-.15-.16-.23-.27-.24-.27-.14-.17a3.18,3.18,0,0,1-.6-.64c-.22-.31-.46-.64-.7-1l-.77-1.09a7.44,7.44,0,0,0-.76-.91,13,13,0,0,0,.07,1.35c0,.48.1,1,.15,1.46s.09,1,.1,1.46a8.32,8.32,0,0,1,0,1.34l-.15,6.16a.35.35,0,0,1-.1.21,1.19,1.19,0,0,1-.5.12c-.27,0-.69.07-1.26.1l-2.39.15a1.11,1.11,0,0,0-.51-.07l-.84,0a3.57,3.57,0,0,1-.78-.11C133.82,125.36,133.7,125.23,133.7,125Z"/><path class="cls-1" d="M166,125.21c-.88-.33-1.63-.65-2.25-.95s-1.15-.57-1.59-.83a8.22,8.22,0,0,1-1.05-.71c-.27-.21-.49-.41-.67-.58s-.33-.33-.45-.47a3.91,3.91,0,0,0-.36-.35s-.07,0-.12-.09-.08-.09-.08-.12a.45.45,0,0,1-.12-.22l-.22-.22-.25-.26-.22-.2a.38.38,0,0,0-.11-.09l-.41-.65v0s0,0,0,0a0,0,0,0,0,0,0v0a5.54,5.54,0,0,1-.71-1.26,11,11,0,0,1-.47-1.4c-.13-.47-.26-1-.37-1.44s-.23-1-.37-1.4a2.1,2.1,0,0,1-.09-.58,2.6,2.6,0,0,0-.08-.59c-.07-.29-.15-.57-.24-.86a4.27,4.27,0,0,1-.17-.85c0-.12,0-.32,0-.62s0-.62-.07-1-.05-.66-.07-1,0-.52,0-.66v-.47a7.93,7.93,0,0,1,.13-1.35c.07-.4.18-.84.31-1.31a1.07,1.07,0,0,0,.08-.22c0-.13.07-.27.11-.42s.07-.28.1-.4a1.74,1.74,0,0,1,.07-.23,6.81,6.81,0,0,1,.41-1.12,7,7,0,0,1,.42-.76,5.86,5.86,0,0,1,.45-.6A4.26,4.26,0,0,1,158,100a8.43,8.43,0,0,1,.78-1c.3-.32.62-.65,1-1s.7-.63,1-.92a5.61,5.61,0,0,1,1.53-1c.6-.28,1.16-.52,1.7-.74l.29-.13a4,4,0,0,1,.51-.25l.51-.23.29-.15.15,0,.28-.09.28-.1.17-.07a1,1,0,0,1,.22-.11A1,1,0,0,0,167,94h.51l.13,0,.16,0,.28,0,.3-.05.23,0a5.11,5.11,0,0,1,1.52-.21h3.55l.41,0,.42,0,.3,0,.24,0a2,2,0,0,1,.3.08l.22,0c.11,0,.19,0,.21.08l.22,0,.41,0,.41,0,.25,0a.65.65,0,0,0,.21.08l.2,0a.81.81,0,0,0,.19.13l.34.2.33.2.2.13.21.12a.77.77,0,0,1,.22.12.38.38,0,0,1,.16.1.46.46,0,0,0,.17.1s0,0,.1,0a.18.18,0,0,0,.09,0,.47.47,0,0,1,.27.34,1.48,1.48,0,0,1,.08.46v.19a.38.38,0,0,1-.09.13l-.15.17-.16.21-.27.39-.27.37a1.16,1.16,0,0,1-.16.2,1.44,1.44,0,0,0-.46.52c-.18.29-.37.58-.58.88a4.22,4.22,0,0,1-.68.76.74.74,0,0,1-.77.19c-.69-.17-1.34-.31-2-.43a12.69,12.69,0,0,0-2-.18h-.51a1.83,1.83,0,0,1-.33,0l-.17,0-.27.07-.27.06-.17,0-.3,0-.54.06-.55.07-.32,0-.19,0-.33.11-.38.13-.27.1a6.3,6.3,0,0,0-1.54.9,9.26,9.26,0,0,0-1.28,1.23,3,3,0,0,0-.22.28l-.37.47-.37.48-.23.28a4.71,4.71,0,0,0-.36.42,1.57,1.57,0,0,0-.28.53c0,.06-.05.18-.1.35s-.08.36-.13.55-.09.38-.14.55a3.56,3.56,0,0,0-.09.37.24.24,0,0,0,0,.08V107a1.34,1.34,0,0,0,.06.4,2,2,0,0,1,.05.44v0l-.17.2a.7.7,0,0,0-.13.21v.07c0,.58,0,1.22.05,1.9a7.3,7.3,0,0,0,.35,1.88l.29,1,0,0s0,.13.09.25l.14.36c.05.12.09.24.13.35a1.81,1.81,0,0,0,.09.23.7.7,0,0,1,.32.4,1.94,1.94,0,0,0,.22.49,14.4,14.4,0,0,0,1,1.32,9.6,9.6,0,0,0,1.17,1.13,7.32,7.32,0,0,0,1.37.89,6.89,6.89,0,0,0,1.58.56l.43.08.64.1.59.1.35,0h1.12a12.21,12.21,0,0,0,1.5-.06,6.72,6.72,0,0,0,1.46-.35l.17-.07.23-.12.21-.1.12-.06a2.35,2.35,0,0,0,.39-.21l.33-.2a1.68,1.68,0,0,1,.33-.16,1.24,1.24,0,0,1,.4-.07l.21,0,.18,0a9.56,9.56,0,0,1,.83.86,4.36,4.36,0,0,1,.63,1l.17.32.26.54.27.55.17.3a.93.93,0,0,0,.1.15,2,2,0,0,1,.17.23l.16.25.09.14a1.85,1.85,0,0,1,.09.65.41.41,0,0,1-.21.29,2.68,2.68,0,0,1-.47.21,2.62,2.62,0,0,0-.71.45.13.13,0,0,0-.06,0s0,0,0,0l0,0a4.18,4.18,0,0,1-1,.57,7.47,7.47,0,0,1-1,.35,8.07,8.07,0,0,1-1.11.22l-1.15.13-.59,0-1,.08-1,.07-.58.06h-1.2l-.26,0-.43,0-.44,0-.26,0h-1.49a1.64,1.64,0,0,1-.32,0l-.21,0-.38-.08-.41-.1Z"/><path class="cls-1" d="M201.26,125.21c-.88-.33-1.63-.65-2.25-.95s-1.15-.57-1.59-.83a7.56,7.56,0,0,1-1-.71c-.27-.21-.49-.41-.67-.58s-.33-.33-.45-.47a3.91,3.91,0,0,0-.36-.35s-.07,0-.12-.09-.09-.09-.09-.12a.35.35,0,0,1-.07-.11.24.24,0,0,1,0-.11l-.22-.22c-.09-.09-.18-.17-.26-.26l-.21-.2a.38.38,0,0,0-.11-.09l-.41-.65v0s0,0,0,0,0,0,0,0v0a5.19,5.19,0,0,1-.71-1.26,11,11,0,0,1-.48-1.4q-.19-.7-.36-1.44c-.11-.48-.24-1-.37-1.4a2.14,2.14,0,0,1-.1-.58,2.55,2.55,0,0,0-.07-.59l-.24-.86a3.66,3.66,0,0,1-.17-.85c0-.12,0-.32,0-.62s0-.62-.06-1,0-.66-.07-1,0-.52-.05-.66v-.47a9,9,0,0,1,.14-1.35c.07-.4.18-.84.31-1.31,0,0,0-.1.08-.22s.07-.27.11-.42.07-.28.1-.4a.9.9,0,0,1,.07-.23,6.81,6.81,0,0,1,.41-1.12,4.7,4.7,0,0,1,.42-.76,5.86,5.86,0,0,1,.45-.6,3.87,3.87,0,0,1,.49-.94,8.43,8.43,0,0,1,.78-1c.3-.32.62-.65,1-1s.69-.63,1-.92a5.32,5.32,0,0,1,1.53-1c.6-.28,1.16-.52,1.69-.74a1.62,1.62,0,0,0,.29-.13,5,5,0,0,1,.52-.25l.51-.23.29-.15.15,0,.28-.09.28-.1.16-.07a1.23,1.23,0,0,1,.23-.11,1,1,0,0,0,.22-.11h.5a.31.31,0,0,0,.13,0l.16,0,.28,0,.31-.05.22,0a5.22,5.22,0,0,1,1.53-.21h3.54l.41,0,.43,0,.3,0,.23,0a2.24,2.24,0,0,1,.31.08l.21,0A.56.56,0,0,1,211,94l.22,0,.4,0,.41,0,.25,0a.73.73,0,0,0,.22.08l.19,0a1,1,0,0,0,.2.13l.33.2.34.2.2.13.21.12a.77.77,0,0,1,.22.12.46.46,0,0,1,.16.1.46.46,0,0,0,.17.1s0,0,.09,0a.2.2,0,0,0,.1,0,.47.47,0,0,1,.27.34,1.85,1.85,0,0,1,.08.46v.19a.6.6,0,0,1-.09.13l-.15.17a1.44,1.44,0,0,0-.16.21l-.27.39-.27.37a1.16,1.16,0,0,1-.16.2,1.35,1.35,0,0,0-.46.52c-.18.29-.37.58-.58.88a4.22,4.22,0,0,1-.68.76.75.75,0,0,1-.78.19c-.68-.17-1.34-.31-2-.43a12.71,12.71,0,0,0-2-.18H207a1.83,1.83,0,0,1-.33,0l-.17,0-.27.07-.27.06-.17,0-.31,0-.54.06-.54.07-.32,0-.19,0-.34.11-.37.13-.28.1a6.42,6.42,0,0,0-1.53.9,9.26,9.26,0,0,0-1.28,1.23,3,3,0,0,0-.22.28l-.37.47-.37.48-.23.28c-.13.13-.25.28-.37.42a1.4,1.4,0,0,0-.27.53c0,.06-.06.18-.1.35s-.09.36-.13.55-.09.38-.14.55a3.56,3.56,0,0,0-.09.37.12.12,0,0,0,0,.08V107a1.75,1.75,0,0,0,0,.4,1.51,1.51,0,0,1,.06.44v0a1.66,1.66,0,0,0-.17.2.53.53,0,0,0-.13.21v.07c0,.58,0,1.22,0,1.9a7.75,7.75,0,0,0,.34,1.88l.3,1,0,0a1.61,1.61,0,0,0,.09.25l.13.36.14.35a.67.67,0,0,0,.09.23.7.7,0,0,1,.32.4,1.94,1.94,0,0,0,.22.49,14.4,14.4,0,0,0,1,1.32,9.6,9.6,0,0,0,1.17,1.13,7.32,7.32,0,0,0,1.37.89,7,7,0,0,0,1.57.56l.44.08.64.1.59.1.35,0h1.11a12.3,12.3,0,0,0,1.51-.06,6.86,6.86,0,0,0,1.46-.35l.16-.07.24-.12.21-.1.12-.06a3.58,3.58,0,0,0,.39-.21l.32-.2a2.11,2.11,0,0,1,.34-.16,1.24,1.24,0,0,1,.4-.07l.2,0,.19,0a11.17,11.17,0,0,1,.83.86,4.32,4.32,0,0,1,.62,1,2.23,2.23,0,0,1,.18.32l.26.54c.09.2.18.38.27.55a3,3,0,0,0,.17.3.93.93,0,0,0,.1.15c.06.07.11.15.17.23s.11.17.16.25l.09.14a2.13,2.13,0,0,1,.09.65.41.41,0,0,1-.21.29,3.07,3.07,0,0,1-.47.21,2.47,2.47,0,0,0-.71.45.09.09,0,0,0-.06,0l-.05,0a.05.05,0,0,1,0,0,4.4,4.4,0,0,1-1,.57,7.61,7.61,0,0,1-1,.35,8.07,8.07,0,0,1-1.11.22l-1.14.13-.59,0-1,.08-1,.07-.59.06h-1.19l-.26,0-.44,0-.44,0-.26,0h-1.48a1.78,1.78,0,0,1-.33,0l-.2,0-.38-.08-.41-.1Z"/><path class="cls-1" d="M225,125.06l-.3,0-.53.07-.53.08-.3,0c-.53,0-1.07,0-1.6.07s-1.07.08-1.6.08c-.1,0-.15,0-.15,0s-.05,0-.13,0a1.11,1.11,0,0,1-.17-.16l-.17-.16V125a1.36,1.36,0,0,0,0-.15,1.31,1.31,0,0,0,0-.27,2.46,2.46,0,0,1,0-.26,1.18,1.18,0,0,1,0-.16,1.73,1.73,0,0,1,0-.34c0-.17,0-.35,0-.53s0-.36,0-.52,0-.26,0-.32c0-.24,0-.61,0-1.11s0-1.07,0-1.71,0-1.3,0-2,0-1.37,0-2,0-1.18,0-1.68,0-.86,0-1.1c0-.07,0-.21,0-.42s0-.42,0-.64,0-.44,0-.65a2.37,2.37,0,0,0,0-.41l-.59-15.38a1.23,1.23,0,0,0,0-.17c0-.07,0-.15,0-.25a2.44,2.44,0,0,1,0-.27,1,1,0,0,1,0-.2,3.29,3.29,0,0,1,.08-.46.24.24,0,0,1,.26-.18h.24l.34,0,.36,0,.29,0h3.16l.15,0,.3,0a1.83,1.83,0,0,1,.33,0c.1,0,.17,0,.19,0a.72.72,0,0,1,.65.13,1.16,1.16,0,0,1,.33.52,1.84,1.84,0,0,1,.09.67c0,.23,0,.43,0,.6a2,2,0,0,0,0,.27q0,.21,0,.48c0,.18,0,.36,0,.53a2.46,2.46,0,0,0,0,.39v.15a.82.82,0,0,1,0,.25,1.42,1.42,0,0,0-.07.22l.11,2.83v.21c0,.12,0,.25,0,.4s0,.28,0,.41a.45.45,0,0,0,0,.23c0,.58.07,1,.08,1.25s0,.41,0,.47,0,.09,0,.08,0,0,0,0,0,.19,0,.4,0,.59.06,1.12v1.06l.09.42a2.08,2.08,0,0,1,.06.42l.16,1.75v0a.67.67,0,0,0,0,.19c0,.11,0,.24,0,.38s0,.27,0,.38,0,.18,0,.19c0,.21,0,.56,0,1s0,1,0,1.54,0,1,.06,1.54,0,.83,0,1v1.6l-.07,2v2.35a3.43,3.43,0,0,1,0,.45v1s0,.06,0,.1a.81.81,0,0,0,0,.16v1.15a1.23,1.23,0,0,1-.06.39.89.89,0,0,1-.18.33,1.18,1.18,0,0,1-.4.29.67.67,0,0,0-.33.07C225.19,125.19,225.1,125.16,225,125.06Z"/><path class="cls-1" d="M246.71,125.51a.37.37,0,0,1-.2-.37,1.86,1.86,0,0,0,0-.47.19.19,0,0,0-.05-.11.24.24,0,0,1-.06-.11v-.17a1,1,0,0,1,.11-.47.83.83,0,0,0,.12-.44v-.11l-.18,0a.38.38,0,0,0-.16.08l-.42.28-.62.39c-.23.13-.44.26-.66.37a1.84,1.84,0,0,1-.48.19l-1.45.59h-.12l-.13,0-.19.05-.21,0H239.6l-.52,0a5.41,5.41,0,0,1-.61-.08l-.19,0-.34-.08-.33-.06-.2,0h-1l-.61-.24-.4-.21-.58-.31-.59-.32-.41-.21-.33-.15-.46-.23-.44-.21c-.14-.06-.22-.11-.26-.13l-.09-.09-.18-.16-.2-.17-.16-.12a11.44,11.44,0,0,1-.9-1c-.28-.37-.57-.72-.85-1.06a3.94,3.94,0,0,1-.66-1.23,13.07,13.07,0,0,1-.42-1.61,14.35,14.35,0,0,1-.25-1.67c-.05-.55-.07-1-.07-1.42s0-1,0-1.41,0-.86.07-1.28.11-.83.2-1.26a11.24,11.24,0,0,1,.37-1.36,4,4,0,0,1,.14-.47c.08-.25.17-.49.25-.73s.16-.44.23-.59.08-.15.07,0a7.34,7.34,0,0,1,.78-1.59,9.71,9.71,0,0,1,1.1-1.37,12.37,12.37,0,0,1,1.33-1.17c.48-.36,1-.7,1.49-1,0,0,.16-.1.34-.19s.37-.19.58-.29l.6-.29.39-.18.13,0,.24-.06a2.3,2.3,0,0,1,.28-.06,1.39,1.39,0,0,1,.23,0l.3-.08.22,0h3.67l1.27.34a10.2,10.2,0,0,1,1.18.39,8.74,8.74,0,0,1,1.1.56,5.32,5.32,0,0,1,1,.85h.07s0-.09,0-.16a1.48,1.48,0,0,0,0-.21c0-.08,0-.15,0-.22a.88.88,0,0,0,0-.14s0,0,0-.13,0-.15.05-.24a1.32,1.32,0,0,1,0-.23.66.66,0,0,0,0-.13.23.23,0,0,1,0-.26.56.56,0,0,1,.22-.24.79.79,0,0,1,.3-.12.37.37,0,0,1,.28,0h1.64c.47,0,.93,0,1.38,0s.91,0,1.39.1l1.65.18.18.11c.09,0,.13.09.13.15s0,.25,0,.41,0,.34,0,.52,0,.35,0,.52a3.22,3.22,0,0,1,0,.44s0,.1,0,.22,0,.26,0,.41,0,.29,0,.41,0,.2,0,.22a1.35,1.35,0,0,1-.06.27,1.73,1.73,0,0,0-.06.26s0,.11,0,.23,0,.24,0,.37v.37a.53.53,0,0,1,0,.22.86.86,0,0,1,0,.17.59.59,0,0,1-.08.16l0,4.4V114q0,1,0,2.34c0,.86,0,1.71,0,2.56s0,1.66,0,2.41,0,1.4.05,1.91c0,0,0,.13,0,.28s0,.33-.06.52,0,.35-.06.51a.64.64,0,0,0,0,.29v.3a.72.72,0,0,1-.26.13.88.88,0,0,0-.25.11,7.2,7.2,0,0,0-.86,0l-.7.08-.67.08a4.47,4.47,0,0,1-.84,0h-1.32l-.65,0-.65,0Zm-11-12.26a5.21,5.21,0,0,0,.32,1.83,9.58,9.58,0,0,0,.85,1.65l.11.18q.08.12.12.12c.29.32.6.64.92.93a6.88,6.88,0,0,0,1,.8,4.88,4.88,0,0,0,1.13.54,3.9,3.9,0,0,0,1.3.21,3.77,3.77,0,0,0,1.22-.21c.41-.13.79-.27,1.15-.42l.22-.11.28-.13.24-.12.14-.07a4.44,4.44,0,0,0,1.13-1.24,7.13,7.13,0,0,0,.72-1.53,7.86,7.86,0,0,0,.37-1.68c.07-.57.12-1.13.14-1.66V112l0-.47c0-.16,0-.31,0-.45a1.14,1.14,0,0,0,0-.29l-.16-.34a2.6,2.6,0,0,1-.15-.28c0-.08-.09-.16-.12-.22-.25-.47-.5-.93-.75-1.37a2.85,2.85,0,0,0-1-1l-.33-.25L244,107l-.42-.25a1,1,0,0,0-.37-.16l-.27-.08-.42-.11-.42-.09-.27-.06a.48.48,0,0,0-.34-.2,4,4,0,0,0-.49,0,4.51,4.51,0,0,0-.53.09,2.07,2.07,0,0,1-.43.06,1.89,1.89,0,0,0-.6.1,2.69,2.69,0,0,0-.6.27,4.17,4.17,0,0,0-.56.37,4.06,4.06,0,0,0-.48.43l-.16.18-.26.31-.27.31a.91.91,0,0,0-.15.19,4.26,4.26,0,0,0-1,1.84,11.14,11.14,0,0,0-.24,1.5C235.72,112.21,235.7,112.73,235.7,113.25Z"/><path class="cls-1" d="M259.53,124.69l-1.18-.63a7.83,7.83,0,0,1-1.11-.73,6.62,6.62,0,0,0-.56-.47c-.2-.16-.38-.32-.55-.47a2.19,2.19,0,0,1-.42-.5,1.21,1.21,0,0,1-.19-.55c0-.07,0-.15,0-.25s0-.18,0-.2a2.39,2.39,0,0,1,.13-.21,1,1,0,0,1,.09-.15l.06-.07a1.65,1.65,0,0,0,.17-.18l.28-.28.29-.3c.09-.09.16-.15.19-.19l.16-.21c.08-.12.14-.2.16-.24l.29-.28.35-.33.3-.31c.1-.09.16-.16.2-.2a2.59,2.59,0,0,1,.29-.16,1.36,1.36,0,0,1,.28-.13H259a.38.38,0,0,1,.28.13,3.53,3.53,0,0,1,.25.28,2.69,2.69,0,0,0,.27.32.87.87,0,0,0,.32.23c.26.15.53.33.82.52s.62.38,1,.56a7.58,7.58,0,0,0,1.16.46,5.76,5.76,0,0,0,1.37.24.47.47,0,0,0,.42,0,2.18,2.18,0,0,0,.59-.23,2.53,2.53,0,0,0,.52-.39.72.72,0,0,0,.24-.45c0-.09,0-.2,0-.35a3.87,3.87,0,0,0-.06-.46,3.83,3.83,0,0,0-.11-.43,1,1,0,0,0-.13-.31,10.06,10.06,0,0,0-1.38-1.55,8.14,8.14,0,0,0-1.69-1.18,2.56,2.56,0,0,1-.29-.17l-.51-.32-.52-.31-.27-.17a.87.87,0,0,0-.2-.15l-.36-.25a3.51,3.51,0,0,0-.4-.27,2.14,2.14,0,0,1-.27-.21,2.06,2.06,0,0,0-.41-.34l-.42-.29a3.42,3.42,0,0,1-.4-.52c-.19-.25-.38-.52-.58-.81l-.58-.79a5.35,5.35,0,0,0-.38-.47,4,4,0,0,1-.93-1.93,9.29,9.29,0,0,1-.15-2.1,4.22,4.22,0,0,1,.17-1c.11-.36.22-.7.35-1s.24-.59.34-.8.17-.33.2-.33a3.73,3.73,0,0,1,.24-.34c.1-.12.21-.24.32-.35l.33-.32c.12-.1.21-.18.3-.24a4.66,4.66,0,0,1,.91-.56,5.83,5.83,0,0,1,.94-.34l1-.22,1.08-.2q.51-.06,1.35-.09a9.58,9.58,0,0,1,2,.2h.08a8.06,8.06,0,0,1,1.56.38,11.45,11.45,0,0,1,1.53.67,12.05,12.05,0,0,1,1.41.9,11,11,0,0,1,1.25,1.09c.05.07.13.18.24.31l.34.41.31.38.17.2a.51.51,0,0,1,.09.22,1.41,1.41,0,0,1,0,.21,1.65,1.65,0,0,0,0,.21.17.17,0,0,1-.13.16,2.68,2.68,0,0,0-.43.4l-.56.63-.5.56c-.15.16-.24.23-.28.2l-.29.27L270,108l-.45.41-.34.29L269,109a.34.34,0,0,1-.3.09h-.11l-.11-.08-.16-.11-.16-.11-.09-.07a6.61,6.61,0,0,1-.57-.34l-.85-.55-.84-.55-.54-.35-.23-.06-.34-.08-.33-.07-.23-.06h0l-.31.12a2.38,2.38,0,0,0-.3.18,1.32,1.32,0,0,0-.22.26.45.45,0,0,0-.05.32,2.21,2.21,0,0,0,0,.42.88.88,0,0,0,.15.4,4.66,4.66,0,0,0,1.17,1.22,5.8,5.8,0,0,0,1.5.81,15.32,15.32,0,0,1,2.22,1.06,10.05,10.05,0,0,1,1.93,1.51,2.71,2.71,0,0,1,.23.26l.41.41.41.43.28.28.25.27a.9.9,0,0,1,.17.2l.18.28c.08.12.16.26.25.41l.25.42.18.28a1.24,1.24,0,0,1,.18.43,5.12,5.12,0,0,1,.09.62c0,.22,0,.45,0,.68s0,.43,0,.59a1,1,0,0,1,0,.14,2,2,0,0,0,0,.25,2.09,2.09,0,0,1,0,.25,1.13,1.13,0,0,1,0,.14,6.68,6.68,0,0,1-1.13,3,12,12,0,0,1-2.28,2.41,5.06,5.06,0,0,1-.9.58,4.49,4.49,0,0,1-1,.38,9.46,9.46,0,0,1-1.21.21c-.44.05-.95.08-1.52.1a8.27,8.27,0,0,1-1.37-.17c-.46-.1-.93-.22-1.39-.34l-1.37-.41C260.41,124.93,260,124.8,259.53,124.69Z"/><path class="cls-1" d="M278.29,124.69l-1.18-.63a9.16,9.16,0,0,1-1.11-.73,6.62,6.62,0,0,0-.56-.47l-.55-.47a2.43,2.43,0,0,1-.41-.5,1,1,0,0,1-.19-.55,2.36,2.36,0,0,1,0-.25c0-.11,0-.18,0-.2a1.2,1.2,0,0,1,.13-.21.53.53,0,0,1,.08-.15l.07-.07.17-.18L275,120l.29-.3.2-.19.16-.21.16-.24.28-.28.35-.33.31-.31.19-.2.29-.16a1.16,1.16,0,0,1,.29-.13h.24a.38.38,0,0,1,.28.13,2.26,2.26,0,0,1,.25.28,2.69,2.69,0,0,0,.27.32,1,1,0,0,0,.32.23c.26.15.54.33.83.52a10.81,10.81,0,0,0,1,.56,7.45,7.45,0,0,0,1.15.46,5.85,5.85,0,0,0,1.37.24.47.47,0,0,0,.42,0,2.06,2.06,0,0,0,.59-.23,2.28,2.28,0,0,0,.52-.39.72.72,0,0,0,.24-.45c0-.09,0-.2,0-.35s0-.3-.07-.46-.07-.3-.1-.43a1.31,1.31,0,0,0-.13-.31,11.22,11.22,0,0,0-1.38-1.55,8.22,8.22,0,0,0-1.7-1.18l-.29-.17-.51-.32-.51-.31a1.92,1.92,0,0,1-.27-.17l-.21-.15-.36-.25a4.56,4.56,0,0,0-.39-.27,2.14,2.14,0,0,1-.27-.21,2.41,2.41,0,0,0-.41-.34l-.43-.29a4.24,4.24,0,0,1-.4-.52l-.58-.81-.58-.79A3.94,3.94,0,0,0,276,110a4,4,0,0,1-.93-1.93,10.61,10.61,0,0,1-.15-2.1,3.79,3.79,0,0,1,.18-1c.1-.36.22-.7.34-1s.24-.59.35-.8.17-.33.19-.33l.25-.34a3.38,3.38,0,0,1,.31-.35l.34-.32a2.61,2.61,0,0,1,.3-.24,4.6,4.6,0,0,1,.9-.56,6.2,6.2,0,0,1,.94-.34l1-.22,1.07-.2q.52-.06,1.35-.09a9.73,9.73,0,0,1,2,.2h.07a8.34,8.34,0,0,1,1.57.38,10.8,10.8,0,0,1,1.52.67,12.18,12.18,0,0,1,1.42.9,11.9,11.9,0,0,1,1.25,1.09c.05.07.13.18.24.31s.22.28.34.41l.3.38a2.66,2.66,0,0,0,.18.2.4.4,0,0,1,.08.22,1.41,1.41,0,0,1,0,.21,1.65,1.65,0,0,0,0,.21.17.17,0,0,1-.13.16,2.34,2.34,0,0,0-.42.4l-.56.63-.51.56c-.15.16-.24.23-.28.2l-.28.27-.45.41-.46.41-.33.29-.26.23a.36.36,0,0,1-.3.09h-.12l-.11-.08-.16-.11-.15-.11-.1-.07a6.61,6.61,0,0,1-.57-.34l-.84-.55-.84-.55-.54-.35-.24-.06-.33-.08-.34-.07-.23-.06h0l-.3.12a1.49,1.49,0,0,0-.3.18.87.87,0,0,0-.22.26.4.4,0,0,0-.05.32,1.26,1.26,0,0,0,0,.42.7.7,0,0,0,.15.4,4.5,4.5,0,0,0,1.17,1.22,5.74,5.74,0,0,0,1.49.81A15.46,15.46,0,0,1,287,111.4a10.7,10.7,0,0,1,1.93,1.51l.23.26c.12.12.25.27.4.41l.42.43.27.28.26.27a1.47,1.47,0,0,1,.17.2c0,.06.09.15.18.28s.16.26.25.41.17.29.25.42l.18.28a1.24,1.24,0,0,1,.17.43,3.65,3.65,0,0,1,.1.62c0,.22,0,.45,0,.68a3.7,3.7,0,0,1,0,.59,1,1,0,0,1,0,.14v.25c0,.08,0,.17,0,.25a1.13,1.13,0,0,0,0,.14,6.8,6.8,0,0,1-1.13,3,12.24,12.24,0,0,1-2.28,2.41,4.79,4.79,0,0,1-.91.58,4.41,4.41,0,0,1-1,.38,9.78,9.78,0,0,1-1.21.21c-.45.05-.95.08-1.52.1a8.14,8.14,0,0,1-1.37-.17c-.47-.1-.93-.22-1.39-.34l-1.37-.41C279.18,124.93,278.73,124.8,278.29,124.69Z"/><path class="cls-1" d="M295.18,125.73l-1.08-.09c-.1,0-.16,0-.17,0a.5.5,0,0,1,0-.12,2.76,2.76,0,0,1,0-.38,1.73,1.73,0,0,0,0-.38.86.86,0,0,0-.1-.33.66.66,0,0,1-.09-.29,1.5,1.5,0,0,1,0-.2.24.24,0,0,1,.1-.19q0-.26,0-1.17c0-.61,0-1.35,0-2.21s-.06-1.81-.09-2.84-.06-2-.1-3.06-.07-2-.09-2.89,0-1.68,0-2.31a3,3,0,0,0,0-.49c0-.21-.05-.42-.08-.65s-.06-.46-.09-.67a2.24,2.24,0,0,1,0-.52,1.49,1.49,0,0,0,0-.17.46.46,0,0,0,0-.2c-.06,0-.09,0-.1-.1a1.1,1.1,0,0,0,0-.18l0-.15.11-.19a8.08,8.08,0,0,0,0-.82c0-.23,0-.5-.06-.82a1.21,1.21,0,0,0,0-.18,2,2,0,0,0,0-.24,2.81,2.81,0,0,1,0-.3.73.73,0,0,0-.07-.17.73.73,0,0,1-.07-.17.94.94,0,0,1,0-.16.81.81,0,0,1,0-.15v-.15a2.26,2.26,0,0,1,0-.25,1.79,1.79,0,0,1,0-.24.28.28,0,0,1,0-.15l0,0a.15.15,0,0,0,0-.08,9.88,9.88,0,0,0,1.23-.22,6.27,6.27,0,0,1,1.23-.15,8.93,8.93,0,0,1,1.47,0l1.46.17a.91.91,0,0,0,.27,0l.35,0a.93.93,0,0,1,.33.12.34.34,0,0,1,.16.28,1.24,1.24,0,0,1,0,.52,1.16,1.16,0,0,0,0,.54v.06a.07.07,0,0,0,0,0s0,0,0,0l.33-.16.43-.21.44-.22.33-.16.21-.11.23-.13.22,0c.11,0,.18-.06.19-.09a2.68,2.68,0,0,1,.42-.22,5.49,5.49,0,0,1,.51-.21l.48-.18a1.22,1.22,0,0,0,.27-.12,3.54,3.54,0,0,1,.95-.22l1,0a6.25,6.25,0,0,1,1.71.12,10.68,10.68,0,0,1,1.69.52,8.44,8.44,0,0,1,1.47.75,5.84,5.84,0,0,1,1.07.82c.09.1.18.22.29.37l.3.44c.09.16.17.31.24.46a1.24,1.24,0,0,1,.12.41.62.62,0,0,1-.11.29,4.22,4.22,0,0,1-.27.36,3.53,3.53,0,0,1-.32.34.84.84,0,0,1-.23.18s-.05,0-.09.08l-.16.11-.17.11c-.06,0-.09.06-.1.08l-.22.15-.28.22-.26.2a1.31,1.31,0,0,0-.14.12,5.88,5.88,0,0,0-.6.52,7.75,7.75,0,0,1-.62.52,4,4,0,0,1-.69.41,2.29,2.29,0,0,1-.81.19h-.37l-.09,0-.13-.06c-.51-.26-1.06-.5-1.62-.72a4.4,4.4,0,0,0-1.72-.32,1.47,1.47,0,0,0-1,.47,9.27,9.27,0,0,0-.77.89,1.18,1.18,0,0,1-.2.26,1.09,1.09,0,0,0-.21.28,1.32,1.32,0,0,1-.15.25l-.23.38-.24.42a1.63,1.63,0,0,0-.16.35,2.82,2.82,0,0,0-.22,1c0,.35-.05.67-.08,1a22.34,22.34,0,0,0-.23,3.41,28.63,28.63,0,0,0,.19,2.9c.07.67.14,1.33.23,2s.16,1.3.22,2c0,.08,0,.21,0,.4s0,.4,0,.6l.06.6c0,.19,0,.32,0,.4l-.07,0-.06,0-.08,0h-.11l-.11,0-.11-.06Z"/><path class="cls-1" d="M322.39,125.1a3.06,3.06,0,0,0-.4-.08l-.65-.12-.17,0a3,3,0,0,1-.36-.1,3.67,3.67,0,0,1-.45-.17,2.36,2.36,0,0,1-.42-.28.52.52,0,0,0-.15-.07l-.27-.11-.27-.11a.64.64,0,0,1-.16-.07,2.35,2.35,0,0,1-.64-.35,5.53,5.53,0,0,1-.59-.47c-.19-.16-.37-.32-.54-.49l-.49-.48a14,14,0,0,1-1.6-1.77,10.36,10.36,0,0,1-1.21-2,15.82,15.82,0,0,1-.65-1.64,10,10,0,0,1-.38-1.45,13.94,13.94,0,0,1-.17-1.48c0-.51-.05-1.09-.05-1.75v-1.4a20.63,20.63,0,0,1,.56-2,12,12,0,0,1,.77-1.8,12.39,12.39,0,0,1,1.06-1.64,10.81,10.81,0,0,1,1.39-1.51,8.8,8.8,0,0,1,1.2-1,11.94,11.94,0,0,1,1.32-.75l.16-.07.22-.1.21-.09.14,0,.28,0,.26,0,.22-.16.2-.15.13,0,.21,0,.2,0,.12,0,.33-.09.56-.14.57-.14.34-.06a3.25,3.25,0,0,1,.54-.11l.84-.08.85-.07.59-.06h.58l.74,0a3.72,3.72,0,0,1,.71.11c.35.09.7.16,1.06.24s.72.14,1.06.19a4.11,4.11,0,0,1,.44.2l.65.34.65.35.41.24.29.27.51.52.54.56.39.42a1.34,1.34,0,0,0,.11.17l.22.31.24.34c.08.11.14.21.2.28a14.08,14.08,0,0,1,1.1,2,11.71,11.71,0,0,1,.7,2,14.44,14.44,0,0,1,.38,2.12,18.44,18.44,0,0,1,.13,2.26v.08c0,.21-.06.5-.09.86s-.06.74-.09,1.09-.06.69-.09,1,0,.46-.05.51a11.25,11.25,0,0,1-.4,1.8,13.56,13.56,0,0,1-.66,1.7c-.24.3-.43.55-.57.76s-.29.4-.44.59-.32.41-.51.63-.46.52-.8.87a13.66,13.66,0,0,1-1.38.9,11,11,0,0,1-1.52.7,10.3,10.3,0,0,1-1.59.47,6.29,6.29,0,0,1-1.6.13h-.64l-.39,0h-.26a.31.31,0,0,0-.12-.07l-.13,0-.17,0-.29.05-.3,0a.26.26,0,0,1-.18,0,1.93,1.93,0,0,1-.34,0c-.18,0-.38,0-.59-.07l-.59-.08-.32-.06h-.19Zm-2.45-12.8c0,.35.05.69.1,1a3.85,3.85,0,0,0,.28,1,.66.66,0,0,0,.09.2,1,1,0,0,1,.09.21c.05.16.1.34.15.52s.11.38.16.56a4.3,4.3,0,0,0,.2.54,1.58,1.58,0,0,0,.28.47l.18.19.26.28.25.26.14.14.13.1c.06,0,.15.1.24.16l.28.17a1.14,1.14,0,0,0,.23.13l.19.13.24.17a.7.7,0,0,0,.22.13.67.67,0,0,0,.19.09.85.85,0,0,0,.24,0,2.22,2.22,0,0,0,.59.22,1.8,1.8,0,0,0,.33,0l.3-.06a1.54,1.54,0,0,1,.5,0h.13l.24,0,.26,0,.21,0a4.52,4.52,0,0,0,1.64-.6,5.24,5.24,0,0,0,1.33-1.16,5.17,5.17,0,0,0,.88-1.53,5,5,0,0,0,.32-1.73s0-.19,0-.45,0-.74.08-1.41a2.44,2.44,0,0,0-.19-1c-.13-.31-.25-.63-.35-1a2.88,2.88,0,0,0-.85-1.26,12.36,12.36,0,0,0-1.22-.94c-.26-.17-.5-.32-.71-.44a4.37,4.37,0,0,0-.67-.29,3.85,3.85,0,0,0-.69-.16,6.5,6.5,0,0,0-.83-.08h-.75a3.79,3.79,0,0,0-.74.11,7.29,7.29,0,0,0-1,.25,7,7,0,0,0-1,.42,3.57,3.57,0,0,0-.82.61,2.19,2.19,0,0,0-.53.82l-.32.89a2.15,2.15,0,0,0-.21.43,5,5,0,0,0-.15.61,4.74,4.74,0,0,0-.05.65A3.51,3.51,0,0,0,319.94,112.3Z"/><path class="cls-1" d="M348.81,125.1a3.22,3.22,0,0,0-.39-.08l-.65-.12-.17,0a2.54,2.54,0,0,1-.36-.1,2.75,2.75,0,0,1-.45-.17,1.81,1.81,0,0,1-.42-.28l-.16-.07-.27-.11-.27-.11-.16-.07a2.51,2.51,0,0,1-.64-.35,6.75,6.75,0,0,1-.59-.47c-.18-.16-.37-.32-.54-.49l-.48-.48a13.26,13.26,0,0,1-1.6-1.77,10.4,10.4,0,0,1-1.22-2,15.82,15.82,0,0,1-.65-1.64,10,10,0,0,1-.37-1.45,11.74,11.74,0,0,1-.18-1.48c0-.51,0-1.09,0-1.75v-1.4a20.66,20.66,0,0,1,.55-2,11.12,11.12,0,0,1,.78-1.8,11.39,11.39,0,0,1,1.05-1.64,10.9,10.9,0,0,1,1.4-1.51,8.16,8.16,0,0,1,1.19-1,11.94,11.94,0,0,1,1.32-.75l.16-.07.23-.1.21-.09.13,0,.28,0,.26,0,.22-.16.21-.15.12,0,.21,0,.21,0,.11,0,.34-.09.56-.14.56-.14.35-.06a3,3,0,0,1,.54-.11l.84-.08.85-.07.58-.06H353l.75,0a3.62,3.62,0,0,1,.7.11c.35.09.71.16,1.07.24s.71.14,1.06.19c.09,0,.23.1.44.2l.65.34.64.35.41.24a3.69,3.69,0,0,1,.29.27l.51.52c.19.18.37.37.54.56s.31.33.39.42l.12.17.21.31.24.34.2.28a13.26,13.26,0,0,1,1.11,2,13.65,13.65,0,0,1,.7,2,15.89,15.89,0,0,1,.38,2.12,20.7,20.7,0,0,1,.12,2.26v.08c0,.21-.05.5-.08.86s-.07.74-.1,1.09-.06.69-.08,1a4.26,4.26,0,0,1-.06.51,10.26,10.26,0,0,1-.4,1.8,13.56,13.56,0,0,1-.66,1.7c-.24.3-.42.55-.57.76l-.43.59c-.15.19-.33.41-.52.63s-.45.52-.79.87a15.06,15.06,0,0,1-1.39.9,11,11,0,0,1-1.52.7,10,10,0,0,1-1.59.47,6.18,6.18,0,0,1-1.59.13h-.65l-.39,0h-.25a.5.5,0,0,0-.13-.07.34.34,0,0,0-.13,0l-.17,0-.29.05-.3,0c-.09,0-.15,0-.17,0a2,2,0,0,1-.35,0c-.18,0-.37,0-.58-.07l-.59-.08-.33-.06h-.18Zm-2.44-12.8a8.41,8.41,0,0,0,.09,1,4.3,4.3,0,0,0,.28,1,.66.66,0,0,0,.09.2.76.76,0,0,1,.1.21c.05.16.1.34.15.52s.1.38.16.56a4.29,4.29,0,0,0,.19.54,2.16,2.16,0,0,0,.28.47l.19.19a3.45,3.45,0,0,0,.26.28l.24.26a.55.55,0,0,0,.15.14.48.48,0,0,0,.12.1l.24.16a2.61,2.61,0,0,1,.28.17,1.17,1.17,0,0,0,.24.13l.18.13.25.17a.6.6,0,0,0,.22.13s.08,0,.18.09a.85.85,0,0,0,.25,0,2.19,2.19,0,0,0,.58.22,1.92,1.92,0,0,0,.34,0l.3-.06a1.48,1.48,0,0,1,.49,0h.13l.24,0,.26,0,.21,0a4.45,4.45,0,0,0,1.64-.6,5.08,5.08,0,0,0,1.33-1.16,5.2,5.2,0,0,0,.89-1.53,4.94,4.94,0,0,0,.31-1.73s0-.19,0-.45,0-.74.09-1.41a2.45,2.45,0,0,0-.2-1,8.28,8.28,0,0,1-.34-1,3,3,0,0,0-.85-1.26,13.66,13.66,0,0,0-1.22-.94c-.26-.17-.5-.32-.72-.44a4.74,4.74,0,0,0-.66-.29,4,4,0,0,0-.7-.16,6.32,6.32,0,0,0-.83-.08h-.74a3.88,3.88,0,0,0-.75.11,6.4,6.4,0,0,0-1.93.67,3.8,3.8,0,0,0-.82.61,2.19,2.19,0,0,0-.53.82l-.32.89a1.74,1.74,0,0,0-.2.43,5,5,0,0,0-.15.61,3.57,3.57,0,0,0-.06.65A2.68,2.68,0,0,0,346.37,112.3Z"/><path class="cls-1" d="M366.07,122.23c0-.25,0-.64,0-1.17s0-1.15.06-1.83,0-1.4.08-2.15,0-1.47.07-2.15,0-1.29.05-1.82,0-.92,0-1.16c0-.07,0-.19,0-.37s0-.39,0-.64,0-.51-.05-.78,0-.52,0-.77,0-.46,0-.64,0-.3,0-.37,0-.15,0-.34,0-.41-.06-.67,0-.51-.05-.77,0-.48,0-.66a5,5,0,0,0,0-.53c0-.25-.05-.52-.07-.81s-.05-.55-.08-.8,0-.42,0-.52a1.65,1.65,0,0,1,0-.17.62.62,0,0,1,.08-.18.46.46,0,0,1,.36-.12l.38,0,.21,0,.34,0,.35,0h.2l.31,0,.55-.09.56-.08.33-.06.54,0,.94-.08.93-.08.54,0,.09,0h.13a.35.35,0,0,1,.33.15,1,1,0,0,1,.09.43,4.33,4.33,0,0,1,0,.69q0,.41,0,.93a3.15,3.15,0,0,0,.35-.31c.19-.18.41-.38.67-.6a8.31,8.31,0,0,1,.85-.66,4,4,0,0,1,.88-.5c.33-.11.61-.21.86-.28a7.55,7.55,0,0,1,.74-.21,4.52,4.52,0,0,1,.75-.12,8.31,8.31,0,0,1,.92,0,6.65,6.65,0,0,1,1.49.18,6.86,6.86,0,0,1,1.45.49l.31.15.45.23.48.24.34.16a1.06,1.06,0,0,0,.13.11l.26.17.26.19.17.11.2.11.16.12a2.3,2.3,0,0,1,.26.27l.45.5.44.5.26.29h.12l.15-.17c.09-.08.14-.13.16-.13L388,104a12.32,12.32,0,0,1,1.3-.92,9.42,9.42,0,0,1,1.39-.68,8,8,0,0,1,1.65-.41,6.18,6.18,0,0,1,.86,0,8.63,8.63,0,0,0,.89,0,3.09,3.09,0,0,1,1.2.22c.36.14.73.3,1.12.47a.37.37,0,0,0,.1.07l.17.1.17.1.1.07.09,0,.15.06.14.06s.06,0,0,0a3.92,3.92,0,0,1,.59.47c.16.16.29.31.41.45l.33.4a2.13,2.13,0,0,0,.33.34,6.26,6.26,0,0,1,.6.88,7.53,7.53,0,0,1,.41.87c.11.28.21.56.29.84s.16.54.23.82c.21.93.38,1.82.51,2.68s.24,1.69.33,2.51.16,1.61.23,2.38.15,1.55.24,2.32c0,.18,0,.49,0,1s0,1,0,1.46,0,1,0,1.47,0,.78,0,1c0,0,0,.13,0,.27a3.8,3.8,0,0,0,0,.46c0,.17,0,.33,0,.48s0,.24,0,.28v.11a.38.38,0,0,1-.11.31.76.76,0,0,1-.28.16l-.35.08a1.86,1.86,0,0,0-.32.08.87.87,0,0,1-.42.07.5.5,0,0,0-.31.06l-3.5.08a.6.6,0,0,1-.38,0,.5.5,0,0,1-.25-.2.57.57,0,0,1-.13-.27.68.68,0,0,1,0-.21c0-.86,0-1.73,0-2.61s0-1.75-.07-2.59c0-.05,0-.16,0-.33s0-.37,0-.57,0-.38,0-.55,0-.29,0-.34,0-.41,0-.72,0-.6,0-.91,0-.58,0-.83a3.43,3.43,0,0,0,0-.45s0-.17-.05-.41-.08-.51-.12-.82l-.15-.92c0-.3-.08-.55-.11-.73a3.34,3.34,0,0,0-.14-.65,3.07,3.07,0,0,0-.25-.58,5.2,5.2,0,0,0-1.37-1.63,3.21,3.21,0,0,0-2-.63h-.52a1.34,1.34,0,0,0-.56.13,1,1,0,0,1-.31.12l-.39.1a2.34,2.34,0,0,0-.35.13.41.41,0,0,0-.22.21l-.22.23a.54.54,0,0,0-.13.18l-.15.24c-.08.13-.16.26-.24.41s-.17.29-.25.41l-.13.24-.29.74-.22.63c-.07.21-.13.42-.19.65s-.12.48-.19.78a2.58,2.58,0,0,0-.11.6c0,.24,0,.5,0,.76s0,.52,0,.76,0,.46,0,.62v.76s0,.14,0,.29,0,.33,0,.51,0,.34,0,.49,0,.24,0,.28,0,.27,0,.58,0,.64,0,1,0,.69,0,1,0,.51,0,.6c0,.38.05.75.08,1.1s0,.72,0,1.12a1.32,1.32,0,0,1-.07.42.63.63,0,0,1-.28.34,4.16,4.16,0,0,0-.5,0l-.41,0-.39.09a4.13,4.13,0,0,1-.47.08,6.62,6.62,0,0,1-.91.06l-.89,0c-.27,0-.48,0-.64-.05s-.21,0-.15,0l-.28-.06a1.79,1.79,0,0,1-.32-.13,1,1,0,0,1-.25-.2.44.44,0,0,1-.1-.28.76.76,0,0,1,0-.29.46.46,0,0,0,.06-.25v-.3s0-.14,0-.33,0-.39,0-.61,0-.42,0-.6a2,2,0,0,0,0-.32,5.66,5.66,0,0,1,0-.73c0-.26,0-.52,0-.8l0-.8c0-.26,0-.5,0-.73,0-.07,0-.23,0-.49s0-.52-.07-.81,0-.56-.06-.81,0-.42,0-.49,0-.14,0-.35,0-.44,0-.7l0-.79c0-.27,0-.48,0-.64a5.55,5.55,0,0,0-.08-.76c-.05-.23-.11-.45-.18-.68s-.17-.45-.27-.68-.22-.48-.33-.75a3.31,3.31,0,0,0-1.45-1.72,4.6,4.6,0,0,0-2.33-.57,2.34,2.34,0,0,0-.79.13,3.12,3.12,0,0,0-.74.35,5.34,5.34,0,0,0-.68.52c-.22.2-.42.4-.62.6a2.75,2.75,0,0,0-.53.83,7.12,7.12,0,0,0-.37,1c-.1.37-.17.74-.23,1.1s-.1.7-.14,1c0,.1,0,.26-.05.48l-.06.72c0,.26,0,.49-.07.71s0,.37,0,.45v2.15s0,.1,0,.24,0,.29,0,.45,0,.31,0,.44,0,.22,0,.25v.87c0,.09,0,.23,0,.41s0,.38,0,.59,0,.39,0,.57,0,.28,0,.33,0,.2.05.39,0,.42.06.65.05.44.07.65,0,.33,0,.38v.26a.36.36,0,0,1-.09.18.49.49,0,0,1-.2.16,2.05,2.05,0,0,1-.52.06h-.17l-.21,0-.2,0H371l-1,0-.86,0-.85,0h-1.11a.58.58,0,0,1-.49,0,.71.71,0,0,1-.31-.46,5.43,5.43,0,0,1-.18-1.09C366.14,123.57,366.1,123,366.07,122.23Z"/><path class="cls-1" d="M410.35,101.56l3.37.65a23.88,23.88,0,0,0,.52,2.57l-2.84,1.92a4.25,4.25,0,0,0-1.12,5.73l4.36,6.46a4.13,4.13,0,0,0,5.73,1.11l2.85-1.92a24.14,24.14,0,0,0,2.18,1.44l-.65,3.37a4.15,4.15,0,0,0,3.26,4.84l7.65,1.49A4.14,4.14,0,0,0,440.5,126l.66-3.37a22.77,22.77,0,0,0,2.56-.52l1.92,2.84a4.06,4.06,0,0,0,2.64,1.75,4.12,4.12,0,0,0,3.09-.63l6.46-4.36a4.25,4.25,0,0,0,1.11-5.74L457,113.08a24.25,24.25,0,0,0,1.45-2.18l3.36.65a4.12,4.12,0,0,0,4.84-3.26l1.49-7.65a4.16,4.16,0,0,0-3.27-4.84l-3.36-.65a26,26,0,0,0-.52-2.57l2.84-1.92A4.24,4.24,0,0,0,465,84.93l-4.36-6.46a4.13,4.13,0,0,0-5.73-1.11L452,79.28a25.15,25.15,0,0,0-2.19-1.45l.66-3.37a4.16,4.16,0,0,0-3.27-4.83l-7.65-1.49a4.13,4.13,0,0,0-4.84,3.27l-.65,3.37a22.94,22.94,0,0,0-2.57.52l-1.91-2.85a4.15,4.15,0,0,0-5.74-1.11l-6.45,4.36a4.24,4.24,0,0,0-1.12,5.73l1.92,2.85a21.62,21.62,0,0,0-1.44,2.18l-3.37-.66a4.14,4.14,0,0,0-4.84,3.27l-1.48,7.64a3.72,3.72,0,0,0-.08.74A4.12,4.12,0,0,0,410.35,101.56Zm4.9-3.34-4-.7,1.39-7.58,4.09.8a3.19,3.19,0,0,0,3.41-1.62A19.82,19.82,0,0,1,422,86.31a3.25,3.25,0,0,0,.7-2,3.18,3.18,0,0,0-.54-1.82l-2.36-3.35,6.34-4.38,2.34,3.46A3.16,3.16,0,0,0,432,79.54a19.64,19.64,0,0,1,3.31-.68,3.16,3.16,0,0,0,2.77-2.55l.7-4,7.58,1.38-.8,4.1a3.19,3.19,0,0,0,1.62,3.41A19.82,19.82,0,0,1,450,83a3.19,3.19,0,0,0,3.77.16l3.35-2.36,4.38,6.34L458,89.5a3.23,3.23,0,0,0-1.27,3.56,19.64,19.64,0,0,1,.68,3.31A3.19,3.19,0,0,0,460,99.14l4,.69-1.38,7.59-4.1-.8a3.18,3.18,0,0,0-3.41,1.62,19.26,19.26,0,0,1-1.86,2.81,3.23,3.23,0,0,0-.16,3.77l2.36,3.34-6.34,4.39-2.33-3.46a3.18,3.18,0,0,0-3.56-1.27,20.46,20.46,0,0,1-3.31.68,3.17,3.17,0,0,0-2.77,2.55l-.75,4-7.53-1.38.8-4.1a3.17,3.17,0,0,0-1.62-3.4,21,21,0,0,1-2.81-1.86,3.18,3.18,0,0,0-3.77-.16l-3.35,2.36-4.38-6.34,3.47-2.34a3.22,3.22,0,0,0,1.26-3.55,19.62,19.62,0,0,1-.67-3.31A3.19,3.19,0,0,0,415.25,98.22Z"/><path class="cls-1" d="M434.7,113.72a15.35,15.35,0,0,0,18-12.12,16.38,16.38,0,0,0,.28-2.7,15.33,15.33,0,0,0-30.37-3.14,14.47,14.47,0,0,0-.28,2.7A15.28,15.28,0,0,0,434.7,113.72Zm-8.19-15.19a11.85,11.85,0,0,1,.2-2,11.11,11.11,0,0,1,22,2.27,11.85,11.85,0,0,1-.2,2,11.11,11.11,0,0,1-22-2.27Z"/><path class="cls-1" d="M390.68,92.93l.38-1.93q.58-.1,1.17-.24l1.1,1.64a3.14,3.14,0,0,0,2,1.31,3.08,3.08,0,0,0,2.34-.48l4.24-2.86a3.2,3.2,0,0,0,.84-4.32l-1.1-1.63c.23-.32.45-.66.65-1l1.94.38a3.13,3.13,0,0,0,3.65-2.46l1-5a3.15,3.15,0,0,0-2.46-3.64l-1.93-.38c-.07-.38-.15-.78-.24-1.17l1.63-1.1a3.19,3.19,0,0,0,.84-4.32l-2.86-4.24a3.12,3.12,0,0,0-4.32-.84l-1.63,1.11c-.33-.24-.66-.46-1-.66l.38-1.94a3.16,3.16,0,0,0-2.47-3.64l-5-1A3.11,3.11,0,0,0,386.12,57l-.38,1.94c-.39.06-.78.14-1.17.23l-1.1-1.63a3.12,3.12,0,0,0-4.32-.84l-4.24,2.86a3.19,3.19,0,0,0-.84,4.32l1.1,1.64c-.23.32-.45.66-.66,1l-1.93-.37a3.11,3.11,0,0,0-3.65,2.46l-1,5a2.57,2.57,0,0,0-.06.55,3.11,3.11,0,0,0,2.52,3.1l1.93.37q.11.58.24,1.17L371,79.88a3.2,3.2,0,0,0-.84,4.32L373,88.44a3.1,3.1,0,0,0,4.32.84l1.63-1.1c.33.23.66.45,1,.66l-.38,1.94A3.16,3.16,0,0,0,382,94.42l5,1a3.1,3.1,0,0,0,3.65-2.46Zm-8.36-6.83a13,13,0,0,1-1.8-1.19,2.48,2.48,0,0,0-2.94-.12l-1.9,1.28-2.35-3.48,1.9-1.28a2.53,2.53,0,0,0,1-2.78,11.86,11.86,0,0,1-.43-2.1,2.49,2.49,0,0,0-2-2.17l-2.24-.44.8-4.13,2.24.44a2.48,2.48,0,0,0,2.66-1.26,14.37,14.37,0,0,1,1.19-1.8,2.54,2.54,0,0,0,.12-2.94l-1.28-1.89,3.49-2.36,1.27,1.9a2.5,2.5,0,0,0,2.78,1,12.83,12.83,0,0,1,2.1-.43,2.47,2.47,0,0,0,2.17-2l.44-2.24,4.13.8-.44,2.25a2.48,2.48,0,0,0,1.26,2.66A12.58,12.58,0,0,1,396.27,65a2.48,2.48,0,0,0,3,.12l1.9-1.28,2.35,3.49-1.89,1.28a2.52,2.52,0,0,0-1,2.78,12.22,12.22,0,0,1,.43,2.1,2.5,2.5,0,0,0,2,2.17l2.24.43-.8,4.13-2.24-.44A2.5,2.5,0,0,0,399.54,81a12,12,0,0,1-1.18,1.79,2.51,2.51,0,0,0-.12,2.94l1.28,1.9L396,90l-1.28-1.89a2.46,2.46,0,0,0-2.77-1,13.85,13.85,0,0,1-2.11.43,2.47,2.47,0,0,0-2.17,2l-.43,2.25L383.14,91l.44-2.24A2.5,2.5,0,0,0,382.32,86.1Z"/><path class="cls-1" d="M395.73,76.37a7.43,7.43,0,1,0-14.58-2.83,8,8,0,0,0-.14,1.31,7.43,7.43,0,0,0,14.72,1.52Zm-11.48-2.23a4.26,4.26,0,0,1,8.45.87,3.92,3.92,0,0,1-.08.76,4.26,4.26,0,0,1-8.37-1.63Z"/></svg>